<svg width="560" height="628" viewBox="0 0 560 628" fill="none" xmlns="http://www.w3.org/2000/svg">
<path opacity="0.2" d="M229.277 55.9895C229.277 55.9895 214.746 55.9895 222.237 62.3147C235.636 70.9688 250.28 77.5201 265.66 81.7409C274.099 85.4223 283.123 87.5781 292.314 88.1083C295.065 86.0276 296.978 83.0285 297.707 79.656C297.707 79.656 267.477 79.656 243.808 64.6391C243.808 64.6532 233.769 59.1451 229.277 55.9895Z" fill="black"/>
<path d="M257.156 482.254L247.3 552.126L232.516 552.915L212.142 554.014L209.804 546.97L189.656 546.026C189.656 546.026 189.656 478.957 186.375 462.081L176.604 380.558C176.604 380.558 164.875 299.895 165.818 281.61L178.012 277.017C178.012 277.017 189.445 291.485 230.784 286.047L258.944 300.783C258.944 300.783 259.493 305.15 260.225 312.954C262.83 340.269 267.364 409.705 257.156 482.254Z" fill="#464646"/>
<g opacity="0.2">
<path d="M196.231 330.788C196.428 339.832 196.766 348.876 197.343 357.892C197.921 366.908 198.54 375.924 199.47 384.897C200.399 393.871 201.427 402.844 202.792 411.761L204.989 425.13C205.707 429.61 206.397 434.09 206.988 438.583C209.269 456.559 211.086 474.604 211.832 492.721C212.029 497.243 212.085 501.779 212.184 506.315V516.514L212.085 519.909L211.818 526.699L211.325 533.475C211.1 537.997 210.353 542.491 209.833 546.97C210.438 537.94 210.931 528.925 210.705 519.895V516.514L210.607 513.119L210.424 506.357C210.199 501.849 210.016 497.341 209.692 492.833C209.044 483.832 208.368 474.83 207.439 465.842C206.51 456.855 205.439 447.895 204.215 438.95C203.623 434.484 203.018 430.004 202.342 425.553L200.272 412.128C199.033 403.14 197.977 394.138 197.343 385.094C196.71 376.05 196.217 366.992 195.935 357.948C195.654 348.904 195.795 339.832 196.231 330.788Z" fill="black"/>
</g>
<path opacity="0.2" d="M257.156 482.254L247.3 552.126L232.516 552.915C239.556 532.658 261.155 461.574 252.467 380.502C252.467 380.502 248.849 326.971 245.272 312.447L260.31 312.954C262.83 340.269 267.364 409.705 257.156 482.254Z" fill="black"/>
<path d="M223.842 404.464L231.277 478.464L327.176 430.695L323.262 359.428L223.842 404.464Z" fill="#DDEEF8"/>
<path d="M150.372 585.02C150.372 585.02 144.614 566.397 165.016 562.847C165.016 562.847 187.276 561.607 189.67 546.04L215.113 546.872L219.111 569.946L150.372 585.02Z" fill="#52A8AD"/>
<path d="M212.156 554.014C212.156 554.014 205.806 564.171 195.612 567.284C195.612 567.284 181.419 566.833 184.516 580.582C184.516 580.582 216 577.483 226.208 576.159L226.644 579.258L252.368 574.384C252.368 574.384 253.776 559.17 247.314 552.126L212.156 554.014Z" fill="#52A8AD"/>
<path opacity="0.2" d="M212.156 554.014C212.156 554.014 205.806 564.171 195.612 567.284C195.612 567.284 181.419 566.833 184.516 580.582C184.516 580.582 216 577.483 226.208 576.159L226.644 579.258L252.368 574.384C252.368 574.384 253.776 559.17 247.314 552.126L212.156 554.014Z" fill="black"/>
<path opacity="0.2" d="M176.068 282.483C176.068 282.483 190.599 298.895 234.656 294.204L230.826 286.047C230.826 286.047 194.091 293.091 178.054 277.017L176.068 282.483Z" fill="black"/>
<path d="M235.205 404.464L241.457 466.335L323.262 425.99L319.742 366.471L235.205 404.464Z" fill="#D3E9F4"/>
<path d="M178.012 277.003C178.012 277.003 189.276 291.471 230.784 286.047L278.121 191.311L267.279 142.133L242.78 139.245L210.945 141.076L174.801 221.711L178.012 277.003Z" fill="#F1F2F2"/>
<path d="M237.148 118.889C236.219 124.892 234.705 130.79 232.629 136.498C232.629 136.498 229.475 144.387 230.601 151.839C230.601 151.839 235.332 151.839 237.374 153.417C237.374 153.417 248.201 150.036 252.707 144.387C252.707 144.387 258.93 136.329 261.648 129.454C262.34 127.723 263.238 126.082 264.323 124.566L269.307 117.649L275.488 106.253L270.307 94.2785L237.148 118.889Z" fill="#FFCDC6"/>
<path d="M237.148 118.889C237.148 118.889 235.74 126.116 233.98 132.427C233.98 132.427 256.353 131.539 269.307 117.649C269.307 117.649 270.307 113.508 268.842 105.929L268.73 101.28L237.148 118.889Z" fill="#F7A79E"/>
<path d="M272.247 94.3651C277.513 76.4515 271.374 58.8669 258.535 55.0887C245.696 51.3105 231.019 62.7694 225.753 80.683C220.486 98.5965 226.625 116.181 239.464 119.959C252.304 123.738 266.981 112.279 272.247 94.3651Z" fill="#FFCDC6"/>
<path d="M265.661 81.7409L264.351 99.0118L277.516 91.0948L268.885 105.929C268.885 105.929 270.082 114.691 269.349 117.649C269.349 117.649 287.654 113.198 292.314 88.066C292.314 88.1083 276.023 86.6432 265.661 81.7409Z" fill="#464646"/>
<path d="M229.277 55.9895C229.277 55.9895 214.746 55.9895 222.237 62.3147C235.636 70.9688 250.28 77.5201 265.66 81.7409C274.099 85.4223 283.123 87.5781 292.314 88.1083C295.065 86.0276 296.978 83.0285 297.707 79.656C297.707 79.656 267.477 79.656 243.808 64.6391C243.808 64.6532 233.952 59.3705 229.277 55.9895Z" fill="#52A8AD"/>
<path d="M229.277 55.9895C229.277 55.9895 250.13 15.8833 284.105 36.2675C284.105 36.2675 309.647 50.1856 297.707 79.656C297.693 79.6701 261.225 80.5858 229.277 55.9895Z" fill="#52A8AD"/>
<g opacity="0.2">
<path d="M241.696 53.3975C242.856 50.7914 244.462 48.4078 246.441 46.3539C248.392 44.238 250.574 42.3479 252.946 40.719C255.331 39.1329 257.863 37.7791 260.507 36.676C261.802 36.0843 263.182 35.6899 264.52 35.2673C265.857 34.8447 267.265 34.5207 268.645 34.2248C267.35 34.8306 266.04 35.3236 264.759 35.9153C263.478 36.507 262.196 37.0704 260.957 37.7325C259.718 38.3946 258.465 38.9863 257.282 39.7329C256.1 40.4795 254.903 41.1416 253.734 41.9446C251.433 43.5048 249.254 45.2378 247.215 47.1287C245.148 49.0062 243.297 51.1088 241.696 53.3975Z" fill="black"/>
</g>
<g opacity="0.2">
<path d="M258.099 56.9193C261.848 53.2032 266.116 50.0523 270.771 47.5654C273.1 46.3147 275.53 45.2638 278.037 44.4239C280.55 43.6094 283.168 43.1587 285.809 43.0857C283.289 43.6941 280.818 44.4899 278.417 45.4664C276.042 46.4619 273.719 47.5748 271.447 48.8051C269.166 50.0166 266.941 51.3548 264.731 52.7072C262.52 54.0596 260.282 55.4683 258.099 56.9193Z" fill="black"/>
</g>
<path opacity="0.2" d="M242.358 64.6531C242.358 64.6531 257.156 34.8869 285.049 44.9311C285.049 44.9311 300.988 50.3265 300.748 62.047C300.748 62.047 302.015 68.4989 297.707 79.6419C278.327 79.1305 259.35 73.9915 242.358 64.6531Z" fill="white"/>
<path d="M237.416 153.417C237.416 153.417 250.271 156.572 250.496 167.419L261.324 153.417L262.45 142.358C262.45 142.358 244.188 152.966 237.416 153.417Z" fill="#E6E7E8"/>
<path d="M216.662 151.613L211.241 164.926C211.241 164.926 220.266 155.445 226.363 155.67L230.587 151.839L224.49 142.809L216.662 151.613Z" fill="#E6E7E8"/>
<path d="M230.193 168.546L238.993 162.221L237.416 153.417C235.395 152.156 233.013 151.601 230.643 151.839L223.871 157.981L225.279 168.814C225.279 168.814 190.318 239.25 191.219 259.324L201.145 283.019L217.844 262.029L230.193 168.546Z" fill="#52A8AD"/>
<path d="M236.515 121.143C236.515 121.143 227.264 119.185 216.366 126.158C216.366 126.158 195.893 132.046 188.037 141.851L137.869 194.607C137.869 194.607 101.782 187.043 88.7719 191.607C89.8726 199.396 89.577 207.32 87.8989 215.006L144.867 221.556C146.239 221.716 147.619 221.332 148.711 220.486L175.196 199.947C175.196 199.947 158.877 273.496 156.244 288.992L176.125 302.755C176.125 302.755 180.011 247.956 184.503 234.376L193.979 178.647L203.919 172.505L213.282 147.331C213.282 147.331 225.504 118.917 236.515 121.143Z" fill="#52A8AD"/>
<path d="M83.6751 191.269L88.758 191.565C88.758 191.565 90.6306 205.271 87.885 214.963L83.3794 214.696L83.6751 191.269Z" fill="#464646"/>
<path opacity="0.2" d="M175.196 199.947C175.196 199.947 189.952 158.502 189.952 157.685" stroke="black" stroke-miterlimit="10"/>
<path opacity="0.2" d="M137.869 194.565L141.713 201.059" stroke="black" stroke-miterlimit="10"/>
<path d="M271.996 352.764C271.996 352.764 271.602 367.26 263.773 371.176C263.773 371.176 255.945 373.909 256.339 389.969L264.168 386.447C264.168 386.447 268.856 381.361 270.039 385.263C270.039 385.263 269.251 416.255 279.036 407.592C279.036 407.592 277.854 416.213 283.345 415.03C283.345 415.03 286.471 416.213 286.471 407.197C286.471 407.197 291.948 413.072 294.299 402.506C294.299 402.506 300.171 402.886 299.776 390.757C299.776 390.757 302.818 378.6 295.735 369.035C292.66 364.98 290.98 360.038 290.948 354.948C290.948 353.943 291.023 352.94 291.173 351.947L271.996 352.764Z" fill="#FFCDC6"/>
<path d="M279.036 407.592L278.642 387.616" stroke="#F7A79E" stroke-miterlimit="10"/>
<path d="M286.471 407.197L287.259 384.489" stroke="#F7A79E" stroke-miterlimit="10"/>
<path d="M294.299 402.506L293.511 384.094" stroke="#F7A79E" stroke-miterlimit="10"/>
<path d="M83.1398 212.343C83.1398 212.343 81.2531 217.048 69.3413 217.048L36.7318 217.682C36.7318 217.682 28.5794 216.429 34.2255 211.089C34.2255 211.089 19.8075 207.638 28.5935 201.989C28.5935 201.989 21.3844 200.735 23.5809 196.03C23.5809 196.03 24.8341 192.889 32.029 195.41C32.029 195.41 28.9032 188.184 39.2521 190.071C39.2521 190.071 54.2897 194.143 60.2455 192.269C60.2455 192.269 48.024 188.818 50.5303 181.281C50.5303 181.281 53.0365 177.52 60.5694 182.859C60.5694 182.859 63.1742 185.986 69.8059 186.056C72.5355 186.071 75.2468 186.503 77.8457 187.338C80.3238 188.155 82.8019 189.423 83.6889 191.269L83.1398 212.343Z" fill="#FFCDC6"/>
<path d="M34.5352 196.974C34.5352 196.974 39.8715 199.172 49.5868 197.918" stroke="#F7A79E" stroke-miterlimit="10"/>
<path d="M32.9863 204.469C32.9863 204.469 44.8981 205.102 52.6985 206.046" stroke="#F7A79E" stroke-miterlimit="10"/>
<path d="M36.4219 212.653L51.7833 212.033" stroke="#F7A79E" stroke-miterlimit="10"/>
<path d="M276.538 101.771C279.649 98.0341 280.092 93.2736 277.529 91.1376C274.965 89.0015 270.366 90.2989 267.255 94.0353C264.145 97.7717 263.702 102.532 266.265 104.668C268.828 106.804 273.428 105.507 276.538 101.771Z" fill="#FFCDC6"/>
<path d="M233.023 259.972C233.023 259.972 229.01 294.725 230.46 312.447L270.574 313.165C270.574 313.165 269.166 340.649 270.574 352.947L293.708 352.229L303.099 280.624C303.099 280.624 312.139 195.65 297.678 168.884C297.678 168.884 291.131 157.375 284.105 154.994L272.743 156.572C272.743 156.572 239.204 224.867 233.023 259.972Z" fill="#52A8AD"/>
<path opacity="0.2" d="M270.574 313.165L245.089 312.7C245.089 312.7 266.21 277.736 269.856 242.659C269.856 242.659 271.264 220.598 279.248 206.863C279.248 206.863 271.307 229.276 272.743 261.803L270.574 313.165Z" fill="black"/>
<path d="M266.055 129.271C266.055 129.271 292.004 146.88 284.105 154.994L265.154 186.592L269.673 193.368C269.673 193.368 242.921 229.022 233.065 259.972C233.065 259.972 233.53 239.109 245.948 207.455C245.948 207.455 258.494 175.59 261.366 153.417L262.126 146.486C262.126 146.486 268.631 143.894 266.055 129.271Z" fill="#52A8AD"/>
<path opacity="0.2" d="M266.055 129.271C266.055 129.271 292.004 146.88 284.105 154.994L265.154 186.592L269.673 193.368C269.673 193.368 242.921 229.022 233.065 259.972C233.065 259.972 233.53 239.109 245.948 207.455C245.948 207.455 258.494 175.59 261.366 153.417L262.126 146.486C262.126 146.486 268.631 143.894 266.055 129.271Z" fill="white"/>
<path d="M236.515 121.143C236.515 121.143 230.038 119.396 222.632 126.327C220.77 128.105 218.8 129.766 216.732 131.3C213.132 134.011 209.371 136.499 205.468 138.752C205.063 138.948 204.714 139.243 204.453 139.61C204.192 139.977 204.028 140.403 203.976 140.851L200.751 169.363C200.719 169.688 200.611 170 200.438 170.276C200.265 170.553 200.03 170.785 199.751 170.955L190.74 176.59C190.394 176.805 190.101 177.098 189.886 177.445C189.671 177.792 189.54 178.184 189.501 178.59L184.46 234.488C189.553 210.026 198.588 186.556 211.213 164.996C211.213 164.996 218.506 145.401 226.109 132.497C226.138 132.427 230.854 120.41 236.515 121.143Z" fill="#52A8AD"/>
<path opacity="0.2" d="M236.515 121.143C236.515 121.143 230.038 119.396 222.632 126.327C220.77 128.105 218.8 129.766 216.732 131.3C213.132 134.011 209.371 136.499 205.468 138.752C205.063 138.948 204.714 139.243 204.453 139.61C204.192 139.977 204.028 140.403 203.976 140.851L200.751 169.363C200.719 169.688 200.611 170 200.438 170.276C200.265 170.553 200.03 170.785 199.751 170.955L190.74 176.59C190.394 176.805 190.101 177.098 189.886 177.445C189.671 177.792 189.54 178.184 189.501 178.59L184.46 234.488C189.553 210.026 198.588 186.556 211.213 164.996C211.213 164.996 218.506 145.401 226.109 132.497C226.138 132.427 230.854 120.41 236.515 121.143Z" fill="white"/>
<path d="M237.416 153.417C237.416 153.417 252.298 154.825 250.496 164.25C250.496 164.25 253.96 152.811 262.084 146.486C262.084 146.486 271.503 141.837 264.365 124.566C263.036 126.256 262.008 128.162 261.324 130.201C258.779 135.121 255.914 139.869 252.749 144.415C252.749 144.415 249.144 149.528 237.416 153.417Z" fill="#D1D3D4"/>
<path d="M216.662 151.613C216.662 151.613 227.264 148.007 230.643 151.839C230.643 151.839 229.672 146.387 232.671 136.498C232.671 136.498 236.5 127.44 236.754 121.086C236.754 121.086 231.544 119.565 226.138 132.427C224.955 134.399 223.772 136.484 222.617 138.681C220.4 142.881 218.412 147.198 216.662 151.613Z" fill="#D1D3D4"/>
<path d="M238.007 166.179C238.007 166.179 238.007 163.799 241.231 162.108L242.259 172.462C240.601 170.542 239.173 168.433 238.007 166.179Z" fill="#D3E9F4"/>
<path d="M471.639 147.246L479.523 171.195C479.523 171.195 466.387 166.461 461.909 156.741C462.401 154.369 463.589 152.197 465.323 150.505C467.057 148.814 469.256 147.679 471.639 147.246Z" fill="#D3E9F4"/>
<path d="M436.692 580.596C436.692 580.596 445.618 584.823 444.041 602.15L374.908 601.643C374.856 601.643 374.806 601.622 374.769 601.585C374.732 601.548 374.711 601.498 374.711 601.445C374.711 601.393 374.732 601.343 374.769 601.306C374.806 601.269 374.856 601.248 374.908 601.248C383.933 599.628 416.515 592.683 418.331 576.384C418.331 576.384 420.429 572.158 422.006 576.906L436.692 580.596Z" fill="#52A8AD"/>
<path d="M375.105 605.277H444.042V602.122H375.105V605.277Z" fill="#DDEEF8"/>
<path d="M493.406 582.202H507.036V565.551H493.406V582.202Z" fill="#FFCDC6"/>
<path d="M429.581 590.049C427.561 590.049 425.623 589.246 424.195 587.817C422.766 586.387 421.964 584.449 421.964 582.428V567.932H437.212V582.4C437.216 583.404 437.021 584.399 436.639 585.328C436.257 586.257 435.695 587.101 434.986 587.812C434.277 588.523 433.434 589.086 432.507 589.47C431.579 589.854 430.585 590.051 429.581 590.049Z" fill="#FFCDC6"/>
<path d="M518.539 599.375C517.045 594.976 513.975 591.288 509.922 589.02C509.38 588.752 508.923 588.339 508.6 587.827C508.277 587.315 508.101 586.724 508.092 586.119V580.963C508.092 580.54 507.924 580.136 507.626 579.837C507.328 579.539 506.923 579.371 506.501 579.371H494.167C493.953 579.371 493.741 579.414 493.545 579.497C493.348 579.581 493.17 579.703 493.021 579.857C492.873 580.011 492.757 580.193 492.68 580.393C492.604 580.592 492.568 580.805 492.576 581.019L492.787 586.175C492.816 586.686 492.699 587.194 492.45 587.641C492.2 588.087 491.829 588.454 491.379 588.696C489.311 589.787 487.537 591.361 486.206 593.283C484.875 595.206 484.027 597.421 483.733 599.741L518.539 599.375Z" fill="#52A8AD"/>
<path d="M483.48 602.403H518.539V599.389H483.48V602.403Z" fill="#DDEEF8"/>
<path d="M471.906 139.879C471.906 139.879 472.173 135.512 459.98 137.413C459.98 137.413 461.388 145.964 463.866 150.303C467.05 147.248 469.76 143.735 471.906 139.879Z" fill="#52A8AD"/>
<path opacity="0.2" d="M471.906 139.879C471.906 139.879 472.173 135.512 459.98 137.413C459.98 137.413 461.388 145.964 463.866 150.303C467.05 147.248 469.76 143.735 471.906 139.879Z" fill="black"/>
<path d="M458.896 116.325C458.896 116.325 456.08 131.116 464.359 151.05L444.562 165.137L438.268 176.703L430.383 180.379L427.229 177.224L426.694 148.824L429.327 139.879L458.896 116.325Z" fill="#FFCDC6"/>
<path d="M430.905 154.6C430.905 154.6 446.393 153.473 454.841 127.186L427.807 130.412L429.215 140.78L427.99 144.767L430.905 154.6Z" fill="#F7A79E"/>
<path d="M437.058 142.682C448.948 142.682 458.586 126.706 458.586 106.999C458.586 87.2921 448.948 71.3163 437.058 71.3163C425.168 71.3163 415.529 87.2921 415.529 106.999C415.529 126.706 425.168 142.682 437.058 142.682Z" fill="#FFCDC6"/>
<path d="M474.525 149.867L471.906 139.879C471.906 139.879 463.739 155.473 446.928 157.586C446.928 157.586 451.405 164.066 451.405 179.323C446.889 173.748 444.061 166.998 443.253 159.868C443.253 159.868 435.452 178.619 432.833 197.03L453.954 301.276C460.402 302.332 467.302 303.22 474.623 303.811C478.847 304.164 482.959 304.389 486.915 304.53C487.732 304.53 494.392 304.53 497.391 299.571C499.559 296.021 499.953 290.767 492.857 283.92C492.857 283.92 483.916 263.945 483.395 251.322C483.395 251.322 481.818 220.331 482.339 208.723L483.916 154.036L474.525 149.867Z" fill="#52A8AD"/>
<path d="M495.026 286.597C495.026 286.597 498.7 267.142 479.256 259.831C479.256 259.831 496.969 256.802 503.6 250.224C503.701 250.118 503.765 249.983 503.783 249.839C503.801 249.694 503.771 249.547 503.699 249.421C502.995 248.209 501.502 244.518 506.107 240.757C506.237 240.654 506.325 240.507 506.353 240.343C506.382 240.179 506.349 240.011 506.262 239.87L486.549 209.357C486.549 209.357 484.451 205.666 482.325 208.821L483.902 154.135L498.616 160.967C498.616 160.967 505.079 162.46 509.303 175.054C509.534 175.784 509.831 176.491 510.19 177.168C513.865 184.211 535.773 226.881 539.617 257.69C539.617 257.69 540.152 270.368 521.75 276.623L495.026 286.597Z" fill="#52A8AD"/>
<path d="M447.786 158.756C447.566 158.235 447.195 157.793 446.72 157.486C446.246 157.18 445.69 157.023 445.125 157.037C444.112 157.037 443.126 157.671 443.253 159.854C443.253 159.854 444.914 173.35 451.405 179.309C451.405 179.323 451.715 167.842 447.786 158.756Z" fill="#464646"/>
<path d="M428.539 173.279C428.539 173.279 434.171 149.12 428.863 143.105C428.751 142.979 428.601 142.893 428.436 142.86C428.271 142.827 428.099 142.848 427.948 142.922C426.723 143.457 423.794 144.95 424.076 146.894C424.076 146.894 420.57 148.993 420.57 155.656C420.57 155.656 396.394 165.123 390.776 176.689L383.074 192.466L398.492 310.615L454.024 301.318L432.904 197.073L438.339 176.731L430.454 180.408L427.229 177.224L428.539 173.279Z" fill="#52A8AD"/>
<path d="M421.443 169.335C421.443 169.335 426.694 150.219 424.076 146.894C424.076 146.894 420.387 143.217 420.57 155.656L421.443 169.335Z" fill="#464646"/>
<path d="M492.927 303.431L508.894 562.283C509.001 563.934 508.584 565.576 507.705 566.977C506.825 568.378 505.527 569.466 503.995 570.087C499.998 571.778 495.629 572.39 491.322 571.862C489.683 571.633 488.156 570.895 486.956 569.753C485.757 568.611 484.945 567.122 484.634 565.495L443.52 348.158L440.366 349.736L440.873 566.453C440.88 567.78 440.457 569.074 439.668 570.14C438.879 571.207 437.765 571.989 436.494 572.369C432.69 573.641 428.625 573.92 424.682 573.181C420.74 572.441 417.052 570.707 413.966 568.143C413.333 567.606 412.818 566.943 412.454 566.196C412.09 565.449 411.886 564.635 411.854 563.805L398.492 310.587L454.024 301.29C454.024 301.29 489.774 306.587 492.927 303.431Z" fill="#464646"/>
<path opacity="0.2" d="M440.367 349.707L426.174 349.172L440.888 447.515L440.367 349.707Z" fill="black"/>
<g opacity="0.2">
<path d="M461.909 348.651C458.858 349.063 455.777 349.209 452.701 349.088C449.618 349.042 446.546 348.722 443.521 348.13C449.64 347.353 455.843 347.529 461.909 348.651Z" fill="black"/>
</g>
<g opacity="0.2">
<path d="M456.136 368.105C454.801 367.126 453.557 366.027 452.419 364.823C451.279 363.63 450.212 362.369 449.223 361.048C447.192 358.423 445.616 355.475 444.562 352.328C445.576 353.652 446.506 354.99 447.463 356.3C448.42 357.61 449.364 358.92 450.279 360.216C452.278 362.823 454.264 365.372 456.136 368.105Z" fill="black"/>
</g>
<path d="M474.215 86.277C473.97 85.4307 473.553 84.6441 472.99 83.9667C472.99 83.9667 470.554 57.6518 446.688 54.9471C446.688 54.9471 425.357 51.2985 413.023 77.9233C412.79 78.43 412.417 78.8597 411.948 79.1616C411.479 79.4636 410.933 79.6253 410.376 79.6278H402.266C401.726 79.6278 401.191 79.7342 400.692 79.9409C400.194 80.1476 399.74 80.4506 399.359 80.8326C398.977 81.2146 398.674 81.6681 398.467 82.1671C398.261 82.6662 398.154 83.2011 398.154 83.7413C398.15 84.8178 398.568 85.853 399.319 86.6247C400.069 87.3964 401.091 87.843 402.167 87.8688C415.938 88.1928 461.008 89.2775 471.16 89.9678C471.629 90.008 472.101 89.9339 472.535 89.7518C472.969 89.5698 473.353 89.2852 473.653 88.9224C473.953 88.5597 474.161 88.1296 474.259 87.6689C474.357 87.2082 474.342 86.7306 474.215 86.277Z" fill="#52A8AD"/>
<path opacity="0.2" d="M472.99 83.9667L443.971 82.0649C443.971 82.0649 461.866 79.0925 465.401 65.2448C465.401 65.2448 470.554 69.8654 472.99 83.9667Z" fill="black"/>
<path d="M469.188 89.9396L468.921 95.9126C468.921 95.9126 478.143 103.506 467.301 113.803L475.158 120.044L469.188 117.607C469.188 117.607 473.806 129.271 464.851 132.258C466.578 130.53 467.554 128.192 467.569 125.749C467.569 125.749 463.345 129.37 458.713 129.37C458.176 125.019 458.176 120.619 458.713 116.269L451.574 103.506C449.596 98.9723 449.213 93.9015 450.49 89.1226L469.188 89.9396Z" fill="#464646"/>
<path d="M446.942 89.1226C446.942 89.1226 432.862 89.1226 428.088 91.5597C428.088 91.5597 422.273 95.9126 416.824 95.9126C415.833 98.7837 415.463 101.833 415.74 104.858C415.74 104.858 401.364 99.9698 413.29 88.0379L446.942 89.1226Z" fill="#464646"/>
<path d="M495.209 281.159H485.916L478.552 269.889L482.058 262.353L485.395 262.874C485.395 262.874 494.505 267.664 495.209 281.159Z" fill="#F7A79E"/>
<path d="M495.025 286.597C491.977 287.43 488.735 287.186 485.845 285.907C486.368 285.846 486.868 285.656 487.299 285.353C487.73 285.051 488.078 284.645 488.311 284.173C488.545 283.701 488.657 283.178 488.637 282.651C488.617 282.125 488.466 281.612 488.197 281.159H495.237C495.617 282.961 495.545 284.83 495.025 286.597Z" fill="#52A8AD"/>
<path opacity="0.2" d="M495.025 286.597C491.977 287.43 488.735 287.186 485.845 285.907C486.368 285.846 486.868 285.656 487.299 285.353C487.73 285.051 488.078 284.645 488.311 284.173C488.545 283.701 488.657 283.178 488.637 282.651C488.617 282.125 488.466 281.612 488.197 281.159H495.237C495.617 282.961 495.545 284.83 495.025 286.597Z" fill="black"/>
<path d="M492.533 321.927C492.533 321.927 468.738 269.636 458.854 222.613C456.526 211.55 453.677 200.623 450.307 189.832L444.295 170.547C444.295 170.547 334.723 209.554 255.621 180.633C248.183 178.135 241.919 172.992 238.021 166.18L309.506 344.27C309.506 344.27 352.633 360.456 421.048 339.255C424.653 338.142 428.286 337.156 431.946 336.24C445.97 332.662 478.073 324.689 492.533 321.927Z" fill="#DDEEF8"/>
<path d="M273.193 251.956C273.193 251.956 262.295 256.619 264.632 247.294C264.632 247.294 259.578 245.73 262.689 239.898C262.689 239.898 254.917 237.559 261.915 231.727C261.237 230.831 260.869 229.738 260.869 228.614C260.869 227.49 261.237 226.397 261.915 225.501L273.193 251.956Z" fill="#FFCDC6"/>
<path d="M458.375 117.551C462.457 117.551 465.767 113.091 465.767 107.591C465.767 102.09 462.457 97.6313 458.375 97.6313C454.292 97.6313 450.983 102.09 450.983 107.591C450.983 113.091 454.292 117.551 458.375 117.551Z" fill="#FFCDC6"/>
<path d="M474.229 258.676C472.802 258.255 471.545 257.391 470.639 256.211C470.216 255.38 469.54 254.704 468.71 254.281C467.682 253.816 466.541 253.915 466.64 256.619C466.64 256.619 468.217 262.254 470.146 263.466L476.975 260.31C476.173 259.594 475.241 259.039 474.229 258.676Z" fill="#F7A79E"/>
<path d="M487.056 279.243C487.056 279.243 491.28 284.089 485.845 285.907L472.525 288.034C472.525 288.034 467.611 288.611 469.273 283.878C469.273 283.878 464.95 286.512 461.303 285.005C461.303 285.005 458.938 282.92 461.74 280.286C460.955 280.815 460.002 281.036 459.064 280.906C458.126 280.776 457.269 280.305 456.657 279.581C456.657 279.581 454.559 277.13 458.755 274.848C458.755 274.848 452.109 272.58 459.29 269.213L476.975 260.282C476.975 260.282 484.015 258.169 482.058 265.367C482.058 265.367 489.59 266.058 486.282 272.411C486.267 272.397 491.35 275.75 487.056 279.243Z" fill="#FFCDC6"/>
<path d="M470.118 283.836C475.247 281.569 480.721 280.183 486.31 279.736C483.761 280.9 481.107 281.815 478.383 282.469C475.676 283.181 472.909 283.638 470.118 283.836Z" fill="#F7A79E"/>
<path d="M485.31 272.481C481.659 274.211 477.896 275.693 474.046 276.919C470.219 278.213 466.31 279.253 462.346 280.032C465.999 278.304 469.762 276.817 473.61 275.581C477.439 274.297 481.348 273.262 485.31 272.481Z" fill="#F7A79E"/>
<path d="M481.269 265.649C474.433 269.464 467.162 272.439 459.614 274.51C463.026 272.572 466.569 270.873 470.216 269.424C473.812 267.919 477.504 266.658 481.269 265.649Z" fill="#F7A79E"/>
<path d="M229.615 85.1218C229.405 85.6282 229.404 86.1972 229.613 86.7043C229.821 87.2113 230.222 87.6149 230.728 87.8266C231.198 88.0615 231.743 88.0999 232.242 87.9335C232.741 87.7671 233.153 87.4095 233.389 86.9391C233.389 86.9391 233.389 86.9391 233.389 86.8545C233.596 86.3496 233.597 85.7835 233.392 85.2778C233.187 84.7721 232.791 84.3671 232.291 84.1498C231.82 83.9149 231.276 83.8765 230.777 84.0429C230.278 84.2092 229.865 84.5669 229.629 85.0373L229.615 85.1218Z" fill="#464646"/>
<path d="M230.77 77.3598C230.911 77.6979 232.812 77.1907 234.924 78.0078C237.036 78.8249 238.148 80.4871 238.472 80.3181C238.796 80.149 238.556 79.6983 238.078 78.9094C237.419 77.9414 236.488 77.1911 235.402 76.754C234.319 76.3334 233.129 76.2741 232.009 76.585C231.08 76.8104 230.685 77.1907 230.77 77.3598Z" fill="#464646"/>
<path d="M248.891 92.3626C248.68 92.8672 248.677 93.4348 248.883 93.9416C249.088 94.4483 249.486 94.853 249.989 95.0674C250.229 95.1818 250.488 95.2478 250.753 95.2616C251.018 95.2754 251.283 95.2367 251.533 95.1477C251.783 95.0586 252.013 94.9211 252.209 94.7429C252.406 94.5647 252.565 94.3495 252.679 94.1095C252.881 93.6044 252.877 93.0404 252.67 92.5377C252.462 92.035 252.066 91.6334 251.566 91.4188C251.096 91.1839 250.551 91.1454 250.052 91.3118C249.553 91.4782 249.141 91.8359 248.905 92.3063C248.898 92.3243 248.893 92.3433 248.891 92.3626Z" fill="#464646"/>
<path d="M251.228 85.798C251.355 86.1643 253.27 85.629 255.368 86.446C257.466 87.2631 258.606 88.9394 258.93 88.7704C259.254 88.6013 259.029 88.1506 258.536 87.3617C257.884 86.385 256.944 85.6364 255.847 85.2204C254.77 84.7974 253.586 84.7284 252.467 85.0232C251.594 85.2768 251.13 85.6289 251.228 85.798Z" fill="#464646"/>
<path d="M237.57 98.4201C236.594 97.6427 235.525 96.9897 234.388 96.4761C233.881 96.2084 233.417 95.8985 233.459 95.5041C233.641 94.9546 233.973 94.4667 234.416 94.0954L237.599 90.6299C240.426 87.731 243.021 84.6127 245.357 81.3042C245.145 81.1211 241.33 85.0514 236.909 89.9537L233.783 93.4755C233.183 93.9845 232.792 94.6967 232.685 95.4759C232.685 95.6946 232.735 95.9103 232.833 96.1059C232.931 96.3015 233.073 96.4717 233.248 96.6029C233.51 96.8029 233.799 96.9642 234.107 97.0819C235.197 97.679 236.362 98.129 237.57 98.4201Z" fill="#F7A79E"/>
<path d="M269.04 100.843C269.145 100.99 269.257 101.131 269.378 101.266C269.7 101.568 270.119 101.748 270.56 101.773C271.307 101.64 272.005 101.308 272.58 100.813C273.155 100.317 273.585 99.6753 273.827 98.9554C274.17 98.1805 274.329 97.3368 274.291 96.4902C274.325 96.1692 274.279 95.8449 274.159 95.5455C274.039 95.246 273.847 94.9804 273.602 94.7715C273.443 94.641 273.244 94.5697 273.038 94.5697C272.833 94.5697 272.634 94.641 272.475 94.7715C272.25 94.9828 272.222 95.18 272.179 95.18C272.137 95.18 272.025 94.9546 272.264 94.6025C272.407 94.3889 272.622 94.2339 272.869 94.1658C273.197 94.0807 273.546 94.1261 273.841 94.2925C274.187 94.523 274.468 94.8381 274.658 95.208C274.847 95.5779 274.939 95.9901 274.925 96.4056C275.003 97.37 274.839 98.3387 274.446 99.2231C274.162 100.061 273.635 100.796 272.934 101.335C272.232 101.874 271.387 102.193 270.504 102.252C270.218 102.229 269.942 102.139 269.698 101.99C269.453 101.841 269.247 101.636 269.096 101.392C268.969 101.083 268.997 100.843 269.04 100.843Z" fill="#F7A79E"/>
<path d="M242.358 106.436C239.796 105.55 237.133 104.997 234.431 104.788C233.642 105.661 233.853 108.831 234.614 109.831C235.009 110.339 235.518 110.747 236.1 111.022C236.683 111.296 237.321 111.428 237.965 111.409C239.179 111.23 240.285 110.614 241.077 109.676C241.764 108.718 242.205 107.605 242.358 106.436Z" fill="white"/>
<path d="M420.781 112.902C420.792 113.45 421.018 113.971 421.411 114.354C421.804 114.736 422.331 114.948 422.879 114.944C423.139 114.958 423.4 114.919 423.646 114.832C423.892 114.744 424.118 114.608 424.312 114.433C424.506 114.258 424.663 114.046 424.774 113.81C424.886 113.574 424.95 113.318 424.963 113.057V112.972C424.948 112.425 424.72 111.906 424.329 111.524C423.937 111.143 423.411 110.929 422.865 110.93C422.339 110.906 421.825 111.092 421.435 111.445C421.045 111.799 420.81 112.292 420.781 112.817V112.902Z" fill="#464646"/>
<path d="M418.782 105.379C419.049 105.633 420.584 104.407 422.851 104.309C425.118 104.21 426.793 105.281 427.075 104.999C427.357 104.717 426.906 104.393 426.174 103.886C425.179 103.267 424.022 102.958 422.851 102.998C421.688 103.041 420.571 103.461 419.669 104.196C418.782 104.745 418.585 105.252 418.782 105.379Z" fill="#464646"/>
<path d="M441.31 111.845C441.314 112.117 441.371 112.384 441.479 112.634C441.586 112.883 441.742 113.108 441.937 113.296C442.132 113.485 442.362 113.633 442.615 113.732C442.867 113.831 443.137 113.879 443.408 113.874C443.672 113.883 443.935 113.84 444.182 113.747C444.429 113.655 444.655 113.514 444.848 113.333C445.04 113.152 445.195 112.935 445.303 112.694C445.411 112.454 445.47 112.194 445.478 111.93C445.459 111.387 445.23 110.872 444.838 110.496C444.446 110.12 443.923 109.911 443.38 109.915C443.119 109.902 442.858 109.94 442.612 110.028C442.366 110.116 442.14 110.251 441.946 110.427C441.753 110.602 441.596 110.814 441.484 111.05C441.372 111.286 441.309 111.542 441.296 111.803L441.31 111.845Z" fill="#464646"/>
<path d="M440.901 104.872C441.155 105.154 442.703 103.9 444.942 103.801C447.181 103.703 448.913 104.788 449.166 104.492C449.42 104.196 449.011 103.886 448.265 103.393C447.273 102.755 446.106 102.444 444.928 102.505C443.774 102.558 442.666 102.972 441.76 103.689C440.972 104.266 440.69 104.773 440.901 104.872Z" fill="#464646"/>
<path d="M433.397 121.946C432.193 121.624 430.954 121.449 429.708 121.424C429.131 121.424 428.596 121.298 428.469 120.917C428.413 120.344 428.526 119.766 428.793 119.255L430.299 114.804C431.736 111.013 432.861 107.112 433.664 103.139C433.397 103.069 431.496 108.183 429.44 114.409L428.032 118.889C427.694 119.601 427.624 120.411 427.835 121.171C427.925 121.368 428.06 121.542 428.229 121.679C428.397 121.816 428.595 121.912 428.807 121.96C429.129 122.042 429.461 122.075 429.792 122.058C430.994 122.168 432.204 122.13 433.397 121.946Z" fill="#F7A79E"/>
<path d="M455.615 112.69C455.817 112.819 456.029 112.932 456.248 113.029C456.798 113.232 457.403 113.232 457.952 113.029C458.792 112.466 459.465 111.688 459.901 110.776C460.337 109.864 460.52 108.852 460.43 107.844C460.431 106.713 460.176 105.595 459.684 104.576C459.552 104.169 459.322 103.799 459.016 103.5C458.709 103.201 458.334 102.98 457.924 102.858C457.649 102.782 457.356 102.807 457.098 102.929C456.84 103.05 456.633 103.26 456.516 103.52C456.361 103.9 456.432 104.154 456.375 104.182C456.319 104.21 456.08 103.985 456.164 103.435C456.236 103.101 456.413 102.8 456.671 102.576C457.026 102.296 457.475 102.165 457.924 102.21C458.469 102.305 458.981 102.537 459.412 102.884C459.843 103.232 460.179 103.683 460.388 104.196C460.979 105.331 461.288 106.592 461.289 107.873C461.386 109.045 461.134 110.221 460.565 111.251C459.997 112.281 459.137 113.12 458.093 113.662C457.732 113.786 457.347 113.824 456.969 113.776C456.591 113.727 456.229 113.592 455.911 113.381C455.657 113.014 455.573 112.719 455.615 112.69Z" fill="#F7A79E"/>
<path d="M441.014 127.355C438.306 127.567 435.636 128.131 433.073 129.032C432.707 130.144 434.171 132.962 435.269 133.568C435.834 133.878 436.465 134.049 437.109 134.067C437.753 134.084 438.392 133.946 438.973 133.666C440.015 133.024 440.786 132.021 441.141 130.849C441.369 129.69 441.326 128.494 441.014 127.355Z" fill="white"/>
</svg>
