<svg width="1021" height="962" viewBox="0 0 1021 962" fill="none" xmlns="http://www.w3.org/2000/svg">
<path opacity="0.2" d="M510.277 314.99C510.277 314.99 495.746 314.99 503.237 321.315C516.636 329.969 531.28 336.52 546.66 340.741C555.099 344.422 564.123 346.578 573.314 347.108C576.065 345.028 577.978 342.028 578.707 338.656C578.707 338.656 548.477 338.656 524.808 323.639C524.808 323.653 514.769 318.145 510.277 314.99Z" fill="black"/>
<path d="M538.156 741.254L528.3 811.126L513.516 811.915L493.142 813.014L490.804 805.97L470.656 805.026C470.656 805.026 470.656 737.957 467.375 721.081L457.604 639.558C457.604 639.558 445.875 558.895 446.818 540.61L459.012 536.017C459.012 536.017 470.445 550.485 511.784 545.047L539.944 559.783C539.944 559.783 540.493 564.15 541.225 571.954C543.83 599.269 548.364 668.705 538.156 741.254Z" fill="#464646"/>
<g opacity="0.2">
<path d="M477.231 589.788C477.428 598.832 477.766 607.876 478.343 616.892C478.921 625.908 479.54 634.924 480.47 643.897C481.399 652.871 482.427 661.844 483.792 670.761L485.989 684.13C486.707 688.61 487.397 693.09 487.988 697.583C490.269 715.559 492.086 733.604 492.832 751.721C493.029 756.243 493.085 760.779 493.184 765.315V775.514L493.085 778.909L492.818 785.699L492.325 792.475C492.1 796.997 491.353 801.491 490.833 805.97C491.438 796.94 491.931 787.925 491.705 778.895V775.514L491.607 772.119L491.424 765.357C491.199 760.849 491.016 756.341 490.692 751.833C490.044 742.832 489.368 733.83 488.439 724.842C487.51 715.855 486.439 706.895 485.215 697.95C484.623 693.484 484.018 689.004 483.342 684.553L481.272 671.128C480.033 662.14 478.977 653.138 478.343 644.094C477.71 635.05 477.217 625.992 476.935 616.948C476.654 607.904 476.795 598.832 477.231 589.788Z" fill="black"/>
</g>
<path opacity="0.2" d="M538.156 741.254L528.3 811.126L513.516 811.915C520.556 791.658 542.155 720.574 533.467 639.502C533.467 639.502 529.849 585.971 526.272 571.447L541.31 571.954C543.83 599.269 548.364 668.705 538.156 741.254Z" fill="black"/>
<path d="M504.842 663.464L512.277 737.464L608.176 689.695L604.262 618.428L504.842 663.464Z" fill="#DDEEF8"/>
<path d="M431.372 844.02C431.372 844.02 425.614 825.397 446.016 821.847C446.016 821.847 468.276 820.607 470.67 805.04L496.113 805.872L500.111 828.946L431.372 844.02Z" fill="#52A8AD"/>
<path d="M493.156 813.014C493.156 813.014 486.806 823.171 476.612 826.284C476.612 826.284 462.419 825.833 465.516 839.582C465.516 839.582 497 836.483 507.208 835.159L507.644 838.258L533.368 833.384C533.368 833.384 534.776 818.17 528.314 811.126L493.156 813.014Z" fill="#52A8AD"/>
<path opacity="0.2" d="M493.156 813.014C493.156 813.014 486.806 823.171 476.612 826.284C476.612 826.284 462.419 825.833 465.516 839.582C465.516 839.582 497 836.483 507.208 835.159L507.644 838.258L533.368 833.384C533.368 833.384 534.776 818.17 528.314 811.126L493.156 813.014Z" fill="black"/>
<path opacity="0.2" d="M457.068 541.483C457.068 541.483 471.599 557.895 515.656 553.204L511.826 545.047C511.826 545.047 475.091 552.091 459.054 536.017L457.068 541.483Z" fill="black"/>
<path d="M516.205 663.464L522.457 725.335L604.262 684.99L600.742 625.471L516.205 663.464Z" fill="#D3E9F4"/>
<path d="M459.012 536.003C459.012 536.003 470.276 550.471 511.784 545.047L559.121 450.311L548.279 401.133L523.78 398.245L491.945 400.076L455.801 480.711L459.012 536.003Z" fill="#F1F2F2"/>
<path d="M518.148 377.889C517.219 383.892 515.705 389.79 513.629 395.498C513.629 395.498 510.475 403.387 511.601 410.839C511.601 410.839 516.332 410.839 518.374 412.417C518.374 412.417 529.201 409.036 533.707 403.387C533.707 403.387 539.93 395.329 542.648 388.454C543.34 386.723 544.238 385.082 545.323 383.566L550.307 376.649L556.488 365.253L551.307 353.279L518.148 377.889Z" fill="#FFCDC6"/>
<path d="M518.148 377.889C518.148 377.889 516.74 385.116 514.98 391.427C514.98 391.427 537.353 390.539 550.307 376.649C550.307 376.649 551.307 372.508 549.842 364.929L549.73 360.28L518.148 377.889Z" fill="#F7A79E"/>
<path d="M553.247 353.365C558.513 335.452 552.374 317.867 539.535 314.089C526.696 310.31 512.019 321.769 506.753 339.683C501.486 357.597 507.625 375.181 520.464 378.959C533.304 382.738 547.981 371.279 553.247 353.365Z" fill="#FFCDC6"/>
<path d="M546.661 340.741L545.351 358.012L558.516 350.095L549.885 364.929C549.885 364.929 551.082 373.691 550.349 376.649C550.349 376.649 568.654 372.198 573.314 347.066C573.314 347.108 557.023 345.643 546.661 340.741Z" fill="#464646"/>
<path d="M510.277 314.99C510.277 314.99 495.746 314.99 503.237 321.315C516.636 329.969 531.28 336.52 546.66 340.741C555.099 344.422 564.123 346.578 573.314 347.108C576.065 345.028 577.978 342.028 578.707 338.656C578.707 338.656 548.477 338.656 524.808 323.639C524.808 323.653 514.952 318.37 510.277 314.99Z" fill="#52A8AD"/>
<path d="M510.277 314.99C510.277 314.99 531.13 274.883 565.105 295.267C565.105 295.267 590.647 309.186 578.707 338.656C578.693 338.67 542.225 339.586 510.277 314.99Z" fill="#52A8AD"/>
<g opacity="0.2">
<path d="M522.696 312.397C523.856 309.791 525.462 307.408 527.441 305.354C529.392 303.238 531.574 301.348 533.946 299.719C536.331 298.133 538.863 296.779 541.507 295.676C542.802 295.084 544.182 294.69 545.52 294.267C546.857 293.845 548.265 293.521 549.645 293.225C548.35 293.831 547.04 294.324 545.759 294.915C544.478 295.507 543.196 296.07 541.957 296.733C540.718 297.395 539.465 297.986 538.282 298.733C537.1 299.48 535.903 300.142 534.734 300.945C532.433 302.505 530.254 304.238 528.215 306.129C526.148 308.006 524.297 310.109 522.696 312.397Z" fill="black"/>
</g>
<g opacity="0.2">
<path d="M539.099 315.919C542.848 312.203 547.116 309.052 551.771 306.565C554.1 305.315 556.53 304.264 559.037 303.424C561.55 302.609 564.168 302.159 566.809 302.086C564.289 302.694 561.818 303.49 559.417 304.466C557.042 305.462 554.719 306.575 552.447 307.805C550.166 309.017 547.941 310.355 545.731 311.707C543.52 313.06 541.282 314.468 539.099 315.919Z" fill="black"/>
</g>
<path opacity="0.2" d="M523.358 323.653C523.358 323.653 538.156 293.887 566.049 303.931C566.049 303.931 581.988 309.326 581.748 321.047C581.748 321.047 583.015 327.499 578.707 338.642C559.327 338.131 540.35 332.991 523.358 323.653Z" fill="white"/>
<path d="M518.416 412.417C518.416 412.417 531.271 415.572 531.496 426.419L542.324 412.417L543.45 401.358C543.45 401.358 525.188 411.966 518.416 412.417Z" fill="#E6E7E8"/>
<path d="M497.662 410.613L492.241 423.926C492.241 423.926 501.266 414.445 507.363 414.67L511.587 410.839L505.49 401.809L497.662 410.613Z" fill="#E6E7E8"/>
<path d="M511.193 427.546L519.993 421.221L518.416 412.417C516.395 411.156 514.013 410.601 511.643 410.839L504.871 416.981L506.279 427.814C506.279 427.814 471.318 498.25 472.219 518.324L482.145 542.019L498.844 521.029L511.193 427.546Z" fill="#52A8AD"/>
<path d="M517.515 380.143C517.515 380.143 508.264 378.185 497.366 385.158C497.366 385.158 476.893 391.046 469.037 400.851L418.869 453.607C418.869 453.607 382.782 446.043 369.772 450.607C370.873 458.396 370.577 466.32 368.899 474.006L425.867 480.556C427.239 480.716 428.619 480.332 429.711 479.486L456.196 458.947C456.196 458.947 439.877 532.496 437.244 547.992L457.125 561.755C457.125 561.755 461.011 506.956 465.503 493.376L474.979 437.647L484.919 431.505L494.282 406.331C494.282 406.331 506.504 377.917 517.515 380.143Z" fill="#52A8AD"/>
<path d="M364.675 450.269L369.758 450.565C369.758 450.565 371.631 464.271 368.885 473.963L364.379 473.696L364.675 450.269Z" fill="#464646"/>
<path opacity="0.2" d="M456.196 458.947C456.196 458.947 470.952 417.502 470.952 416.685" stroke="black" stroke-miterlimit="10"/>
<path opacity="0.2" d="M418.869 453.565L422.713 460.059" stroke="black" stroke-miterlimit="10"/>
<path d="M552.996 611.764C552.996 611.764 552.602 626.26 544.773 630.176C544.773 630.176 536.945 632.909 537.339 648.969L545.168 645.447C545.168 645.447 549.856 640.361 551.039 644.263C551.039 644.263 550.251 675.255 560.036 666.592C560.036 666.592 558.854 675.213 564.345 674.03C564.345 674.03 567.471 675.213 567.471 666.197C567.471 666.197 572.948 672.072 575.299 661.506C575.299 661.506 581.171 661.886 580.776 649.757C580.776 649.757 583.818 637.6 576.735 628.035C573.66 623.98 571.98 619.038 571.948 613.948C571.948 612.943 572.023 611.94 572.173 610.947L552.996 611.764Z" fill="#FFCDC6"/>
<path d="M560.036 666.592L559.642 646.616" stroke="#F7A79E" stroke-miterlimit="10"/>
<path d="M567.471 666.197L568.259 643.489" stroke="#F7A79E" stroke-miterlimit="10"/>
<path d="M575.299 661.506L574.511 643.094" stroke="#F7A79E" stroke-miterlimit="10"/>
<path d="M364.14 471.343C364.14 471.343 362.253 476.048 350.341 476.048L317.732 476.682C317.732 476.682 309.579 475.429 315.225 470.089C315.225 470.089 300.807 466.638 309.593 460.989C309.593 460.989 302.384 459.735 304.581 455.03C304.581 455.03 305.834 451.889 313.029 454.41C313.029 454.41 309.903 447.184 320.252 449.071C320.252 449.071 335.29 453.143 341.246 451.269C341.246 451.269 329.024 447.818 331.53 440.281C331.53 440.281 334.037 436.52 341.569 441.859C341.569 441.859 344.174 444.986 350.806 445.056C353.536 445.071 356.247 445.503 358.846 446.338C361.324 447.155 363.802 448.423 364.689 450.269L364.14 471.343Z" fill="#FFCDC6"/>
<path d="M315.535 455.974C315.535 455.974 320.872 458.172 330.587 456.918" stroke="#F7A79E" stroke-miterlimit="10"/>
<path d="M313.986 463.469C313.986 463.469 325.898 464.102 333.698 465.046" stroke="#F7A79E" stroke-miterlimit="10"/>
<path d="M317.422 471.653L332.783 471.033" stroke="#F7A79E" stroke-miterlimit="10"/>
<path d="M557.538 360.771C560.649 357.034 561.092 352.274 558.529 350.138C555.965 348.002 551.366 349.299 548.255 353.035C545.145 356.772 544.702 361.532 547.265 363.668C549.828 365.804 554.428 364.507 557.538 360.771Z" fill="#FFCDC6"/>
<path d="M514.023 518.972C514.023 518.972 510.01 553.725 511.46 571.447L551.574 572.165C551.574 572.165 550.166 599.649 551.574 611.947L574.708 611.229L584.099 539.624C584.099 539.624 593.139 454.65 578.678 427.884C578.678 427.884 572.131 416.375 565.105 413.994L553.743 415.572C553.743 415.572 520.204 483.867 514.023 518.972Z" fill="#52A8AD"/>
<path opacity="0.2" d="M551.574 572.165L526.089 571.7C526.089 571.7 547.21 536.736 550.856 501.659C550.856 501.659 552.264 479.598 560.248 465.863C560.248 465.863 552.307 488.276 553.743 520.803L551.574 572.165Z" fill="black"/>
<path d="M547.055 388.271C547.055 388.271 573.004 405.88 565.105 413.994L546.154 445.592L550.673 452.368C550.673 452.368 523.921 488.022 514.065 518.972C514.065 518.972 514.53 498.109 526.948 466.455C526.948 466.455 539.494 434.59 542.366 412.417L543.126 405.486C543.126 405.486 549.631 402.894 547.055 388.271Z" fill="#52A8AD"/>
<path opacity="0.2" d="M547.055 388.271C547.055 388.271 573.004 405.88 565.105 413.994L546.154 445.592L550.673 452.368C550.673 452.368 523.921 488.022 514.065 518.972C514.065 518.972 514.53 498.109 526.948 466.455C526.948 466.455 539.494 434.59 542.366 412.417L543.126 405.486C543.126 405.486 549.631 402.894 547.055 388.271Z" fill="white"/>
<path d="M517.515 380.143C517.515 380.143 511.038 378.396 503.632 385.327C501.77 387.105 499.8 388.766 497.732 390.3C494.132 393.011 490.371 395.499 486.468 397.752C486.063 397.948 485.714 398.243 485.453 398.61C485.192 398.977 485.028 399.403 484.976 399.851L481.751 428.363C481.719 428.688 481.611 429 481.438 429.276C481.265 429.553 481.03 429.785 480.751 429.955L471.74 435.59C471.394 435.805 471.101 436.098 470.886 436.445C470.671 436.792 470.54 437.184 470.501 437.59L465.46 493.488C470.553 469.026 479.588 445.556 492.213 423.996C492.213 423.996 499.506 404.401 507.109 391.497C507.138 391.427 511.854 379.41 517.515 380.143Z" fill="#52A8AD"/>
<path opacity="0.2" d="M517.515 380.143C517.515 380.143 511.038 378.396 503.632 385.327C501.77 387.105 499.8 388.766 497.732 390.3C494.132 393.011 490.371 395.499 486.468 397.752C486.063 397.948 485.714 398.243 485.453 398.61C485.192 398.977 485.028 399.403 484.976 399.851L481.751 428.363C481.719 428.688 481.611 429 481.438 429.276C481.265 429.553 481.03 429.785 480.751 429.955L471.74 435.59C471.394 435.805 471.101 436.098 470.886 436.445C470.671 436.792 470.54 437.184 470.501 437.59L465.46 493.488C470.553 469.026 479.588 445.556 492.213 423.996C492.213 423.996 499.506 404.401 507.109 391.497C507.138 391.427 511.854 379.41 517.515 380.143Z" fill="white"/>
<path d="M518.416 412.417C518.416 412.417 533.298 413.825 531.496 423.25C531.496 423.25 534.96 411.811 543.084 405.486C543.084 405.486 552.503 400.837 545.365 383.566C544.036 385.256 543.008 387.162 542.324 389.201C539.779 394.121 536.914 398.869 533.749 403.415C533.749 403.415 530.144 408.528 518.416 412.417Z" fill="#D1D3D4"/>
<path d="M497.662 410.613C497.662 410.613 508.264 407.007 511.643 410.839C511.643 410.839 510.672 405.387 513.671 395.498C513.671 395.498 517.5 386.44 517.754 380.086C517.754 380.086 512.544 378.565 507.138 391.427C505.955 393.399 504.772 395.484 503.617 397.681C501.4 401.881 499.412 406.198 497.662 410.613Z" fill="#D1D3D4"/>
<path d="M519.007 425.179C519.007 425.179 519.007 422.799 522.231 421.108L523.259 431.462C521.601 429.542 520.173 427.433 519.007 425.179Z" fill="#D3E9F4"/>
<path d="M752.639 406.246L760.523 430.195C760.523 430.195 747.387 425.461 742.909 415.741C743.401 413.369 744.589 411.197 746.323 409.505C748.057 407.814 750.256 406.679 752.639 406.246Z" fill="#D3E9F4"/>
<path d="M717.692 839.596C717.692 839.596 726.618 843.823 725.041 861.15L655.908 860.643C655.856 860.643 655.806 860.622 655.769 860.585C655.732 860.548 655.711 860.498 655.711 860.445C655.711 860.393 655.732 860.343 655.769 860.306C655.806 860.269 655.856 860.248 655.908 860.248C664.933 858.628 697.515 851.683 699.331 835.384C699.331 835.384 701.429 831.158 703.006 835.906L717.692 839.596Z" fill="#52A8AD"/>
<path d="M656.105 864.277H725.042V861.122H656.105V864.277Z" fill="#DDEEF8"/>
<path d="M774.406 841.202H788.036V824.551H774.406V841.202Z" fill="#FFCDC6"/>
<path d="M710.581 849.049C708.561 849.049 706.623 848.246 705.195 846.817C703.766 845.387 702.964 843.449 702.964 841.428V826.932H718.212V841.4C718.216 842.404 718.021 843.399 717.639 844.328C717.257 845.257 716.695 846.101 715.986 846.812C715.277 847.523 714.434 848.086 713.507 848.47C712.579 848.854 711.585 849.051 710.581 849.049Z" fill="#FFCDC6"/>
<path d="M799.539 858.375C798.045 853.976 794.975 850.288 790.922 848.02C790.38 847.752 789.923 847.339 789.6 846.827C789.277 846.315 789.101 845.724 789.092 845.119V839.963C789.092 839.54 788.924 839.136 788.626 838.837C788.328 838.539 787.923 838.371 787.501 838.371H775.167C774.953 838.371 774.741 838.414 774.545 838.497C774.348 838.581 774.17 838.703 774.021 838.857C773.873 839.011 773.757 839.193 773.68 839.393C773.604 839.592 773.568 839.805 773.576 840.019L773.787 845.175C773.816 845.686 773.699 846.194 773.45 846.641C773.2 847.087 772.829 847.454 772.379 847.696C770.311 848.787 768.537 850.361 767.206 852.283C765.875 854.206 765.027 856.421 764.733 858.741L799.539 858.375Z" fill="#52A8AD"/>
<path d="M764.48 861.403H799.539V858.389H764.48V861.403Z" fill="#DDEEF8"/>
<path d="M752.906 398.879C752.906 398.879 753.173 394.512 740.98 396.413C740.98 396.413 742.388 404.964 744.866 409.303C748.05 406.248 750.76 402.735 752.906 398.879Z" fill="#52A8AD"/>
<path opacity="0.2" d="M752.906 398.879C752.906 398.879 753.173 394.512 740.98 396.413C740.98 396.413 742.388 404.964 744.866 409.303C748.05 406.248 750.76 402.735 752.906 398.879Z" fill="black"/>
<path d="M739.896 375.325C739.896 375.325 737.08 390.116 745.359 410.05L725.562 424.137L719.268 435.703L711.383 439.379L708.229 436.224L707.694 407.824L710.327 398.879L739.896 375.325Z" fill="#FFCDC6"/>
<path d="M711.905 413.6C711.905 413.6 727.393 412.473 735.841 386.186L708.807 389.412L710.215 399.78L708.99 403.767L711.905 413.6Z" fill="#F7A79E"/>
<path d="M718.058 401.682C729.948 401.682 739.586 385.706 739.586 365.999C739.586 346.292 729.948 330.316 718.058 330.316C706.168 330.316 696.529 346.292 696.529 365.999C696.529 385.706 706.168 401.682 718.058 401.682Z" fill="#FFCDC6"/>
<path d="M755.525 408.867L752.906 398.879C752.906 398.879 744.739 414.473 727.928 416.586C727.928 416.586 732.405 423.066 732.405 438.323C727.889 432.748 725.061 425.998 724.253 418.868C724.253 418.868 716.452 437.619 713.833 456.03L734.954 560.276C741.402 561.332 748.302 562.22 755.623 562.811C759.847 563.164 763.959 563.389 767.915 563.53C768.732 563.53 775.392 563.53 778.391 558.571C780.559 555.021 780.953 549.767 773.857 542.92C773.857 542.92 764.916 522.945 764.395 510.322C764.395 510.322 762.818 479.331 763.339 467.723L764.916 413.036L755.525 408.867Z" fill="#52A8AD"/>
<path d="M776.026 545.597C776.026 545.597 779.7 526.142 760.256 518.831C760.256 518.831 777.969 515.802 784.6 509.224C784.701 509.118 784.765 508.983 784.783 508.839C784.801 508.694 784.771 508.547 784.699 508.421C783.995 507.209 782.502 503.518 787.107 499.757C787.237 499.654 787.325 499.507 787.353 499.343C787.382 499.179 787.349 499.011 787.262 498.87L767.549 468.357C767.549 468.357 765.451 464.666 763.325 467.821L764.902 413.135L779.616 419.967C779.616 419.967 786.079 421.46 790.303 434.054C790.534 434.784 790.831 435.491 791.19 436.168C794.865 443.211 816.773 485.881 820.617 516.69C820.617 516.69 821.152 529.368 802.75 535.623L776.026 545.597Z" fill="#52A8AD"/>
<path d="M728.786 417.756C728.566 417.235 728.195 416.793 727.72 416.486C727.246 416.18 726.69 416.023 726.125 416.037C725.112 416.037 724.126 416.671 724.253 418.854C724.253 418.854 725.914 432.35 732.405 438.309C732.405 438.323 732.715 426.842 728.786 417.756Z" fill="#464646"/>
<path d="M709.539 432.279C709.539 432.279 715.171 408.12 709.863 402.105C709.751 401.979 709.601 401.893 709.436 401.86C709.271 401.827 709.099 401.848 708.948 401.922C707.723 402.457 704.794 403.95 705.076 405.894C705.076 405.894 701.57 407.993 701.57 414.656C701.57 414.656 677.394 424.123 671.776 435.689L664.074 451.466L679.492 569.615L735.024 560.318L713.904 456.073L719.339 435.731L711.454 439.408L708.229 436.224L709.539 432.279Z" fill="#52A8AD"/>
<path d="M702.443 428.335C702.443 428.335 707.694 409.219 705.076 405.894C705.076 405.894 701.387 402.217 701.57 414.656L702.443 428.335Z" fill="#464646"/>
<path d="M773.927 562.431L789.894 821.283C790.001 822.934 789.584 824.576 788.705 825.977C787.825 827.378 786.527 828.466 784.995 829.087C780.998 830.778 776.629 831.39 772.322 830.862C770.683 830.633 769.156 829.895 767.956 828.753C766.757 827.611 765.945 826.122 765.634 824.495L724.52 607.158L721.366 608.736L721.873 825.453C721.88 826.78 721.457 828.074 720.668 829.14C719.879 830.207 718.765 830.989 717.494 831.369C713.69 832.641 709.625 832.92 705.682 832.181C701.74 831.441 698.052 829.707 694.966 827.143C694.333 826.606 693.818 825.943 693.454 825.196C693.09 824.449 692.886 823.635 692.854 822.805L679.492 569.587L735.024 560.29C735.024 560.29 770.774 565.587 773.927 562.431Z" fill="#464646"/>
<path opacity="0.2" d="M721.367 608.707L707.174 608.172L721.888 706.515L721.367 608.707Z" fill="black"/>
<g opacity="0.2">
<path d="M742.909 607.651C739.858 608.063 736.777 608.209 733.701 608.088C730.618 608.042 727.546 607.722 724.521 607.13C730.64 606.353 736.843 606.529 742.909 607.651Z" fill="black"/>
</g>
<g opacity="0.2">
<path d="M737.136 627.105C735.801 626.126 734.557 625.027 733.419 623.823C732.279 622.63 731.212 621.369 730.223 620.048C728.192 617.423 726.616 614.475 725.562 611.328C726.576 612.652 727.506 613.99 728.463 615.3C729.42 616.61 730.364 617.92 731.279 619.216C733.278 621.823 735.264 624.372 737.136 627.105Z" fill="black"/>
</g>
<path d="M755.215 345.277C754.97 344.431 754.553 343.644 753.99 342.967C753.99 342.967 751.554 316.652 727.688 313.947C727.688 313.947 706.357 310.298 694.023 336.923C693.79 337.43 693.417 337.86 692.948 338.162C692.479 338.464 691.933 338.625 691.376 338.628H683.266C682.726 338.628 682.191 338.734 681.692 338.941C681.194 339.148 680.74 339.451 680.359 339.833C679.977 340.215 679.674 340.668 679.467 341.167C679.261 341.666 679.154 342.201 679.154 342.741C679.15 343.818 679.568 344.853 680.319 345.625C681.069 346.396 682.091 346.843 683.167 346.869C696.938 347.193 742.008 348.278 752.16 348.968C752.629 349.008 753.101 348.934 753.535 348.752C753.969 348.57 754.353 348.285 754.653 347.922C754.953 347.56 755.161 347.13 755.259 346.669C755.357 346.208 755.342 345.731 755.215 345.277Z" fill="#52A8AD"/>
<path opacity="0.2" d="M753.99 342.967L724.971 341.065C724.971 341.065 742.866 338.092 746.401 324.245C746.401 324.245 751.554 328.865 753.99 342.967Z" fill="black"/>
<path d="M750.188 348.94L749.921 354.913C749.921 354.913 759.143 362.506 748.301 372.803L756.158 379.044L750.188 376.607C750.188 376.607 754.806 388.271 745.851 391.258C747.578 389.53 748.554 387.192 748.569 384.749C748.569 384.749 744.345 388.37 739.713 388.37C739.176 384.019 739.176 379.619 739.713 375.269L732.574 362.506C730.596 357.972 730.213 352.901 731.49 348.123L750.188 348.94Z" fill="#464646"/>
<path d="M727.942 348.123C727.942 348.123 713.862 348.123 709.088 350.56C709.088 350.56 703.273 354.913 697.824 354.913C696.833 357.784 696.463 360.833 696.74 363.858C696.74 363.858 682.364 358.97 694.29 347.038L727.942 348.123Z" fill="#464646"/>
<path d="M776.209 540.159H766.916L759.552 528.889L763.058 521.353L766.395 521.874C766.395 521.874 775.505 526.664 776.209 540.159Z" fill="#F7A79E"/>
<path d="M776.025 545.597C772.977 546.43 769.735 546.186 766.845 544.907C767.368 544.846 767.868 544.656 768.299 544.353C768.73 544.051 769.078 543.645 769.311 543.173C769.545 542.701 769.657 542.178 769.637 541.651C769.617 541.125 769.466 540.612 769.197 540.159H776.237C776.617 541.961 776.545 543.83 776.025 545.597Z" fill="#52A8AD"/>
<path opacity="0.2" d="M776.025 545.597C772.977 546.43 769.735 546.186 766.845 544.907C767.368 544.846 767.868 544.656 768.299 544.353C768.73 544.051 769.078 543.645 769.311 543.173C769.545 542.701 769.657 542.178 769.637 541.651C769.617 541.125 769.466 540.612 769.197 540.159H776.237C776.617 541.961 776.545 543.83 776.025 545.597Z" fill="black"/>
<path d="M773.533 580.927C773.533 580.927 749.738 528.636 739.854 481.613C737.526 470.55 734.677 459.623 731.307 448.832L725.295 429.547C725.295 429.547 615.723 468.554 536.621 439.633C529.183 437.135 522.919 431.992 519.021 425.18L590.506 603.27C590.506 603.27 633.633 619.456 702.048 598.255C705.653 597.142 709.286 596.156 712.946 595.24C726.97 591.662 759.073 583.689 773.533 580.927Z" fill="#DDEEF8"/>
<path d="M554.193 510.956C554.193 510.956 543.295 515.619 545.632 506.294C545.632 506.294 540.578 504.73 543.689 498.898C543.689 498.898 535.917 496.559 542.915 490.727C542.237 489.831 541.869 488.738 541.869 487.614C541.869 486.49 542.237 485.397 542.915 484.501L554.193 510.956Z" fill="#FFCDC6"/>
<path d="M739.375 376.551C743.457 376.551 746.767 372.091 746.767 366.591C746.767 361.09 743.457 356.631 739.375 356.631C735.292 356.631 731.983 361.09 731.983 366.591C731.983 372.091 735.292 376.551 739.375 376.551Z" fill="#FFCDC6"/>
<path d="M755.229 517.676C753.802 517.255 752.545 516.391 751.639 515.211C751.216 514.38 750.54 513.704 749.71 513.281C748.682 512.816 747.541 512.915 747.64 515.619C747.64 515.619 749.217 521.254 751.146 522.466L757.975 519.31C757.173 518.594 756.241 518.039 755.229 517.676Z" fill="#F7A79E"/>
<path d="M768.056 538.243C768.056 538.243 772.28 543.089 766.845 544.907L753.525 547.034C753.525 547.034 748.611 547.611 750.273 542.878C750.273 542.878 745.95 545.512 742.303 544.005C742.303 544.005 739.938 541.92 742.74 539.286C741.955 539.815 741.002 540.036 740.064 539.906C739.126 539.776 738.269 539.305 737.657 538.581C737.657 538.581 735.559 536.13 739.755 533.848C739.755 533.848 733.109 531.58 740.29 528.213L757.975 519.282C757.975 519.282 765.015 517.169 763.058 524.367C763.058 524.367 770.59 525.058 767.282 531.411C767.267 531.397 772.35 534.75 768.056 538.243Z" fill="#FFCDC6"/>
<path d="M751.118 542.836C756.247 540.569 761.721 539.183 767.31 538.736C764.761 539.9 762.107 540.815 759.383 541.469C756.676 542.181 753.909 542.638 751.118 542.836Z" fill="#F7A79E"/>
<path d="M766.31 531.481C762.659 533.211 758.896 534.693 755.046 535.919C751.219 537.213 747.31 538.253 743.346 539.032C746.999 537.304 750.762 535.817 754.61 534.581C758.439 533.297 762.348 532.262 766.31 531.481Z" fill="#F7A79E"/>
<path d="M762.269 524.649C755.433 528.464 748.162 531.439 740.614 533.51C744.026 531.572 747.569 529.873 751.216 528.424C754.812 526.919 758.504 525.658 762.269 524.649Z" fill="#F7A79E"/>
<path d="M510.615 344.122C510.405 344.628 510.404 345.197 510.613 345.704C510.821 346.211 511.222 346.615 511.728 346.827C512.198 347.061 512.743 347.1 513.242 346.934C513.741 346.767 514.153 346.41 514.389 345.939C514.389 345.939 514.389 345.939 514.389 345.855C514.596 345.35 514.597 344.784 514.392 344.278C514.187 343.772 513.791 343.367 513.291 343.15C512.82 342.915 512.276 342.876 511.777 343.043C511.278 343.209 510.865 343.567 510.629 344.037L510.615 344.122Z" fill="#464646"/>
<path d="M511.77 336.36C511.911 336.698 513.812 336.191 515.924 337.008C518.036 337.825 519.148 339.487 519.472 339.318C519.796 339.149 519.556 338.698 519.078 337.909C518.419 336.941 517.488 336.191 516.402 335.754C515.319 335.333 514.129 335.274 513.009 335.585C512.08 335.81 511.685 336.191 511.77 336.36Z" fill="#464646"/>
<path d="M529.891 351.363C529.68 351.867 529.677 352.435 529.883 352.942C530.088 353.448 530.486 353.853 530.989 354.067C531.229 354.182 531.488 354.248 531.753 354.262C532.018 354.275 532.283 354.237 532.533 354.148C532.783 354.059 533.013 353.921 533.209 353.743C533.406 353.565 533.565 353.349 533.679 353.109C533.881 352.604 533.877 352.04 533.67 351.538C533.462 351.035 533.066 350.633 532.566 350.419C532.096 350.184 531.551 350.145 531.052 350.312C530.553 350.478 530.141 350.836 529.905 351.306C529.898 351.324 529.893 351.343 529.891 351.363Z" fill="#464646"/>
<path d="M532.228 344.798C532.355 345.164 534.27 344.629 536.368 345.446C538.466 346.263 539.606 347.939 539.93 347.77C540.254 347.601 540.029 347.151 539.536 346.362C538.884 345.385 537.944 344.636 536.847 344.22C535.77 343.797 534.586 343.728 533.467 344.023C532.594 344.277 532.13 344.629 532.228 344.798Z" fill="#464646"/>
<path d="M518.57 357.42C517.594 356.643 516.525 355.99 515.388 355.476C514.881 355.208 514.417 354.899 514.459 354.504C514.641 353.955 514.973 353.467 515.416 353.095L518.599 349.63C521.426 346.731 524.021 343.613 526.357 340.304C526.145 340.121 522.33 344.051 517.909 348.954L514.783 352.476C514.183 352.984 513.792 353.697 513.685 354.476C513.685 354.695 513.735 354.91 513.833 355.106C513.931 355.302 514.073 355.472 514.248 355.603C514.51 355.803 514.799 355.964 515.107 356.082C516.197 356.679 517.362 357.129 518.57 357.42Z" fill="#F7A79E"/>
<path d="M550.04 359.843C550.145 359.99 550.257 360.131 550.378 360.266C550.7 360.568 551.119 360.748 551.56 360.773C552.307 360.64 553.005 360.308 553.58 359.813C554.155 359.317 554.585 358.675 554.827 357.955C555.17 357.181 555.329 356.337 555.291 355.49C555.325 355.169 555.279 354.845 555.159 354.545C555.039 354.246 554.847 353.98 554.602 353.772C554.443 353.641 554.244 353.57 554.038 353.57C553.833 353.57 553.634 353.641 553.475 353.772C553.25 353.983 553.222 354.18 553.179 354.18C553.137 354.18 553.025 353.955 553.264 353.602C553.407 353.389 553.622 353.234 553.869 353.166C554.197 353.081 554.546 353.126 554.841 353.293C555.187 353.523 555.468 353.838 555.658 354.208C555.847 354.578 555.939 354.99 555.925 355.406C556.003 356.37 555.839 357.339 555.446 358.223C555.162 359.061 554.635 359.796 553.934 360.335C553.232 360.874 552.387 361.193 551.504 361.252C551.218 361.229 550.942 361.139 550.698 360.99C550.453 360.841 550.247 360.636 550.096 360.392C549.969 360.083 549.997 359.843 550.04 359.843Z" fill="#F7A79E"/>
<path d="M523.358 365.436C520.796 364.55 518.133 363.997 515.431 363.788C514.642 364.661 514.853 367.831 515.614 368.831C516.009 369.339 516.518 369.747 517.1 370.022C517.683 370.296 518.321 370.428 518.965 370.409C520.179 370.23 521.285 369.614 522.077 368.676C522.764 367.718 523.205 366.605 523.358 365.436Z" fill="white"/>
<path d="M701.781 371.902C701.792 372.45 702.018 372.971 702.411 373.354C702.804 373.736 703.331 373.948 703.879 373.944C704.139 373.958 704.4 373.919 704.646 373.832C704.892 373.744 705.118 373.608 705.312 373.433C705.506 373.258 705.663 373.046 705.774 372.81C705.886 372.574 705.95 372.318 705.963 372.057V371.972C705.948 371.425 705.72 370.906 705.329 370.524C704.937 370.143 704.411 369.929 703.865 369.93C703.339 369.906 702.825 370.092 702.435 370.445C702.045 370.799 701.81 371.292 701.781 371.817V371.902Z" fill="#464646"/>
<path d="M699.782 364.379C700.049 364.633 701.584 363.407 703.851 363.309C706.118 363.21 707.793 364.281 708.075 363.999C708.357 363.717 707.906 363.393 707.174 362.886C706.179 362.267 705.022 361.958 703.851 361.998C702.688 362.041 701.571 362.461 700.669 363.196C699.782 363.745 699.585 364.252 699.782 364.379Z" fill="#464646"/>
<path d="M722.31 370.845C722.314 371.117 722.371 371.384 722.479 371.634C722.586 371.883 722.742 372.108 722.937 372.296C723.132 372.485 723.362 372.633 723.615 372.732C723.867 372.831 724.137 372.879 724.408 372.874C724.672 372.883 724.935 372.84 725.182 372.747C725.429 372.655 725.655 372.514 725.848 372.333C726.04 372.152 726.195 371.935 726.303 371.694C726.411 371.454 726.47 371.194 726.478 370.93C726.459 370.387 726.23 369.872 725.838 369.496C725.446 369.12 724.923 368.911 724.38 368.915C724.119 368.902 723.858 368.94 723.612 369.028C723.366 369.116 723.14 369.251 722.946 369.427C722.753 369.602 722.596 369.814 722.484 370.05C722.372 370.286 722.309 370.542 722.296 370.803L722.31 370.845Z" fill="#464646"/>
<path d="M721.901 363.872C722.155 364.154 723.703 362.9 725.942 362.801C728.181 362.703 729.913 363.788 730.166 363.492C730.42 363.196 730.011 362.886 729.265 362.393C728.273 361.755 727.106 361.444 725.928 361.505C724.774 361.558 723.666 361.972 722.76 362.689C721.972 363.266 721.69 363.773 721.901 363.872Z" fill="#464646"/>
<path d="M714.397 380.946C713.193 380.624 711.954 380.449 710.708 380.424C710.131 380.424 709.596 380.298 709.469 379.917C709.413 379.344 709.526 378.766 709.793 378.255L711.299 373.804C712.736 370.013 713.861 366.112 714.664 362.139C714.397 362.069 712.496 367.183 710.44 373.409L709.032 377.889C708.694 378.601 708.624 379.411 708.835 380.171C708.925 380.368 709.06 380.542 709.229 380.679C709.397 380.816 709.595 380.912 709.807 380.96C710.129 381.042 710.461 381.075 710.792 381.058C711.994 381.168 713.204 381.13 714.397 380.946Z" fill="#F7A79E"/>
<path d="M736.615 371.69C736.817 371.819 737.029 371.932 737.248 372.029C737.798 372.232 738.403 372.232 738.952 372.029C739.792 371.466 740.465 370.688 740.901 369.776C741.337 368.864 741.52 367.852 741.43 366.844C741.431 365.713 741.176 364.595 740.684 363.576C740.552 363.169 740.322 362.799 740.016 362.5C739.709 362.201 739.334 361.98 738.924 361.858C738.649 361.782 738.356 361.807 738.098 361.929C737.84 362.05 737.633 362.26 737.516 362.52C737.361 362.9 737.432 363.154 737.375 363.182C737.319 363.21 737.08 362.985 737.164 362.435C737.236 362.101 737.413 361.8 737.671 361.576C738.026 361.296 738.475 361.165 738.924 361.21C739.469 361.305 739.981 361.537 740.412 361.884C740.843 362.232 741.179 362.683 741.388 363.196C741.979 364.331 742.288 365.592 742.289 366.873C742.386 368.045 742.134 369.221 741.565 370.251C740.997 371.281 740.137 372.12 739.093 372.662C738.732 372.786 738.347 372.824 737.969 372.776C737.591 372.727 737.229 372.592 736.911 372.381C736.657 372.014 736.573 371.719 736.615 371.69Z" fill="#F7A79E"/>
<path d="M722.014 386.355C719.306 386.567 716.636 387.131 714.073 388.032C713.707 389.144 715.171 391.962 716.269 392.568C716.834 392.878 717.465 393.049 718.109 393.067C718.753 393.084 719.392 392.946 719.973 392.666C721.015 392.024 721.786 391.021 722.141 389.849C722.369 388.69 722.326 387.494 722.014 386.355Z" fill="white"/>
</svg>
