<svg width="263" height="73" viewBox="0 0 263 73" fill="none" xmlns="http://www.w3.org/2000/svg">
<path d="M60.38 45.97C61.84 45.97 63.02 46.51 63.92 47.59C64.82 48.65 65.27 50.05 65.27 51.79C65.27 53.51 64.83 54.9 63.95 55.96C63.07 57 61.91 57.52 60.47 57.52H57.38C57.3 57.52 57.26 57.56 57.26 57.64V66.7C57.26 66.9 57.16 67 56.96 67H55.43C55.23 67 55.13 66.9 55.13 66.7V46.27C55.13 46.07 55.23 45.97 55.43 45.97H60.38ZM60.11 55.78C61.01 55.78 61.74 55.42 62.3 54.7C62.86 53.98 63.14 53.02 63.14 51.82C63.14 50.62 62.86 49.66 62.3 48.94C61.74 48.2 61.01 47.83 60.11 47.83H57.38C57.3 47.83 57.26 47.87 57.26 47.95V55.66C57.26 55.74 57.3 55.78 57.38 55.78H60.11ZM72.5415 51.58C73.9415 51.58 75.0615 52.04 75.9015 52.96C76.7415 53.86 77.1615 55.07 77.1615 56.59V66.7C77.1615 66.9 77.0615 67 76.8615 67H75.3315C75.1315 67 75.0315 66.9 75.0315 66.7V65.8C75.0315 65.76 75.0115 65.74 74.9715 65.74C74.9515 65.72 74.9215 65.73 74.8815 65.77C74.1415 66.75 73.0315 67.24 71.5515 67.24C70.4515 67.24 69.4915 66.93 68.6715 66.31C67.8715 65.67 67.4715 64.55 67.4715 62.95C67.4715 61.25 67.9615 60.01 68.9415 59.23C69.9215 58.43 71.2115 58.03 72.8115 58.03H74.9115C74.9915 58.03 75.0315 57.99 75.0315 57.91V56.74C75.0315 55.74 74.8015 54.94 74.3415 54.34C73.8815 53.74 73.2615 53.44 72.4815 53.44C71.8815 53.44 71.3615 53.64 70.9215 54.04C70.5015 54.44 70.2515 54.95 70.1715 55.57C70.1715 55.77 70.0715 55.87 69.8715 55.87L68.1915 55.84C68.0915 55.84 68.0115 55.81 67.9515 55.75C67.9115 55.69 67.9015 55.62 67.9215 55.54C68.0215 54.36 68.5015 53.41 69.3615 52.69C70.2215 51.95 71.2815 51.58 72.5415 51.58ZM72.0015 65.38C72.8215 65.38 73.5315 65.12 74.1315 64.6C74.7315 64.06 75.0315 63.32 75.0315 62.38V59.86C75.0315 59.78 74.9915 59.74 74.9115 59.74H72.7815C71.8215 59.74 71.0615 60 70.5015 60.52C69.9415 61.02 69.6615 61.77 69.6615 62.77C69.6615 63.65 69.8715 64.31 70.2915 64.75C70.7315 65.17 71.3015 65.38 72.0015 65.38ZM81.7841 49.06C81.2841 49.06 80.8741 48.9 80.5541 48.58C80.2541 48.26 80.1041 47.86 80.1041 47.38C80.1041 46.88 80.2541 46.48 80.5541 46.18C80.8741 45.86 81.2841 45.7 81.7841 45.7C82.2641 45.7 82.6541 45.86 82.9541 46.18C83.2741 46.48 83.4341 46.88 83.4341 47.38C83.4341 47.86 83.2741 48.26 82.9541 48.58C82.6541 48.9 82.2641 49.06 81.7841 49.06ZM81.0341 67C80.8341 67 80.7341 66.9 80.7341 66.7V52.12C80.7341 51.92 80.8341 51.82 81.0341 51.82H82.5641C82.7641 51.82 82.8641 51.92 82.8641 52.12V66.7C82.8641 66.9 82.7641 67 82.5641 67H81.0341ZM92.1343 51.61C93.3543 51.61 94.2943 52.03 94.9543 52.87C95.6343 53.71 95.9743 54.88 95.9743 56.38V66.7C95.9743 66.9 95.8743 67 95.6743 67H94.1443C93.9443 67 93.8443 66.9 93.8443 66.7V56.56C93.8443 55.58 93.6243 54.82 93.1843 54.28C92.7643 53.74 92.1743 53.47 91.4143 53.47C90.6143 53.47 89.9843 53.76 89.5243 54.34C89.0843 54.92 88.8643 55.71 88.8643 56.71V66.7C88.8643 66.9 88.7643 67 88.5643 67H87.0343C86.8343 67 86.7343 66.9 86.7343 66.7V52.12C86.7343 51.92 86.8343 51.82 87.0343 51.82H88.5643C88.7643 51.82 88.8643 51.92 88.8643 52.12V53.08C88.8643 53.12 88.8843 53.15 88.9243 53.17C88.9643 53.19 88.9943 53.17 89.0143 53.11C89.3743 52.61 89.8243 52.24 90.3643 52C90.9243 51.74 91.5143 51.61 92.1343 51.61ZM104.789 53.11C104.789 53.31 104.689 53.41 104.489 53.41H102.209C102.129 53.41 102.089 53.45 102.089 53.53V62.71C102.089 63.63 102.249 64.27 102.569 64.63C102.889 64.97 103.379 65.13 104.039 65.11H104.339C104.539 65.11 104.639 65.21 104.639 65.41V66.7C104.639 66.9 104.539 67 104.339 67H103.589C102.409 67 101.509 66.75 100.889 66.25C100.289 65.73 99.9891 64.76 99.9891 63.34V53.53C99.9891 53.45 99.9491 53.41 99.8691 53.41H98.6991C98.4991 53.41 98.3991 53.31 98.3991 53.11V52.12C98.3991 51.92 98.4991 51.82 98.6991 51.82H99.8691C99.9491 51.82 99.9891 51.78 99.9891 51.7V48.34C99.9891 48.14 100.089 48.04 100.289 48.04H101.789C101.989 48.04 102.089 48.14 102.089 48.34V51.7C102.089 51.78 102.129 51.82 102.209 51.82H104.489C104.689 51.82 104.789 51.92 104.789 52.12V53.11ZM116.507 59.92C116.507 60.12 116.407 60.22 116.207 60.22H109.367C109.287 60.22 109.247 60.26 109.247 60.34V62.53C109.247 63.37 109.477 64.06 109.937 64.6C110.417 65.12 111.037 65.38 111.797 65.38C112.437 65.38 112.977 65.19 113.417 64.81C113.877 64.41 114.177 63.9 114.317 63.28C114.377 63.1 114.487 63.01 114.647 63.01L116.147 63.07C116.227 63.07 116.297 63.1 116.357 63.16C116.417 63.22 116.437 63.3 116.417 63.4C116.257 64.58 115.767 65.52 114.947 66.22C114.147 66.9 113.097 67.24 111.797 67.24C110.377 67.24 109.237 66.82 108.377 65.98C107.537 65.14 107.117 64.03 107.117 62.65V56.17C107.117 54.81 107.537 53.71 108.377 52.87C109.237 52.01 110.377 51.58 111.797 51.58C113.237 51.58 114.377 52.01 115.217 52.87C116.077 53.71 116.507 54.81 116.507 56.17V59.92ZM111.797 53.44C111.037 53.44 110.417 53.71 109.937 54.25C109.477 54.77 109.247 55.46 109.247 56.32V58.33C109.247 58.41 109.287 58.45 109.367 58.45H114.287C114.367 58.45 114.407 58.41 114.407 58.33V56.32C114.407 55.46 114.167 54.77 113.687 54.25C113.207 53.71 112.577 53.44 111.797 53.44ZM124.794 51.67C125.294 51.67 125.724 51.78 126.084 52C126.224 52.08 126.274 52.21 126.234 52.39L125.874 53.95C125.854 54.13 125.734 54.19 125.514 54.13C125.274 54.01 124.974 53.95 124.614 53.95C124.454 53.95 124.334 53.96 124.254 53.98C123.534 54.02 122.944 54.4 122.484 55.12C122.024 55.82 121.794 56.68 121.794 57.7V66.7C121.794 66.9 121.694 67 121.494 67H119.964C119.764 67 119.664 66.9 119.664 66.7V52.12C119.664 51.92 119.764 51.82 119.964 51.82H121.494C121.694 51.82 121.794 51.92 121.794 52.12V53.92C121.794 53.98 121.804 54.01 121.824 54.01C121.864 54.01 121.904 53.99 121.944 53.95C122.524 52.43 123.474 51.67 124.794 51.67ZM132.384 67.15C131.004 67.15 129.894 66.8 129.054 66.1C128.234 65.38 127.824 64.43 127.824 63.25V63.04C127.824 62.84 127.924 62.74 128.124 62.74H129.564C129.764 62.74 129.864 62.84 129.864 63.04V63.22C129.864 63.86 130.094 64.4 130.554 64.84C131.034 65.28 131.654 65.5 132.414 65.5C133.134 65.5 133.714 65.28 134.154 64.84C134.594 64.4 134.814 63.84 134.814 63.16C134.814 62.64 134.674 62.21 134.394 61.87C134.114 61.51 133.784 61.23 133.404 61.03C133.044 60.83 132.494 60.57 131.754 60.25C130.974 59.93 130.324 59.62 129.804 59.32C129.304 59 128.864 58.56 128.484 58C128.124 57.42 127.944 56.69 127.944 55.81C127.944 54.53 128.334 53.52 129.114 52.78C129.914 52.04 130.984 51.67 132.324 51.67C133.684 51.67 134.764 52.05 135.564 52.81C136.364 53.57 136.764 54.58 136.764 55.84V55.93C136.764 56.13 136.664 56.23 136.464 56.23H135.084C134.884 56.23 134.784 56.13 134.784 55.93V55.75C134.784 55.07 134.554 54.51 134.094 54.07C133.654 53.63 133.074 53.41 132.354 53.41C131.634 53.41 131.054 53.64 130.614 54.1C130.194 54.54 129.984 55.09 129.984 55.75C129.984 56.23 130.114 56.64 130.374 56.98C130.634 57.3 130.954 57.57 131.334 57.79C131.714 57.99 132.244 58.24 132.924 58.54C133.744 58.9 134.414 59.24 134.934 59.56C135.474 59.88 135.944 60.33 136.344 60.91C136.744 61.49 136.944 62.21 136.944 63.07C136.944 64.31 136.534 65.3 135.714 66.04C134.894 66.78 133.784 67.15 132.384 67.15Z" fill="#08343E"/>
<path d="M13.1306 35.2279C13.1307 35.4545 13.2435 35.7371 13.4136 35.9631C13.6117 36.1613 13.8661 36.3027 14.1489 36.303C19.8911 36.3311 23.6533 40.942 23.653 45.0153C23.6815 47.7026 21.6035 57.6248 21.5974 58.5923C21.5806 61.3115 23.7805 63.5259 26.4999 63.5259C29.2193 63.5259 31.4193 61.3117 31.4024 58.5923C31.3964 57.6248 29.3183 47.7026 29.3468 45.0153C29.3464 40.942 33.1087 36.3311 38.8509 36.303C39.1339 36.3027 39.388 36.1613 39.5861 35.9631C39.7562 35.737 39.8692 35.4543 39.8692 35.2279L39.887 27.0866L13.1124 27.0866L13.1306 35.2279Z" fill="#9ADBDF"/>
<path d="M10.2129 27.0897L10.2307 35.2311C10.2316 35.7712 10.4425 36.3608 10.8095 36.8492C10.8511 36.9045 10.8967 36.9566 10.9454 37.0057C11.4424 37.5025 12.073 37.7766 12.7161 37.7771C17.4528 37.8003 20.7535 41.6103 20.7532 45.0151C20.7532 45.0203 20.7532 45.0255 20.7533 45.0308C20.7697 46.5996 19.9156 51.3485 19.3503 54.4909C18.869 57.1671 18.7004 58.1428 18.6976 58.5828C18.6869 60.2936 19.3454 61.9043 20.5513 63.1181C21.7576 64.3318 23.3638 65 25.0744 65C26.7849 65 28.391 64.3318 29.597 63.1182C30.8032 61.9045 31.4615 60.2938 31.451 58.5828C31.4482 58.1429 31.2796 57.1674 30.7984 54.4926C30.2331 51.3497 29.3786 46.5999 29.3951 45.0308C29.3952 45.0255 29.3952 45.0202 29.3952 45.0151C29.3948 41.6102 32.6956 37.8004 37.4264 37.7771C38.0751 37.7764 38.7059 37.5025 39.2029 37.0057C39.2516 36.9567 39.2972 36.9045 39.3387 36.8492C39.7064 36.3602 39.9175 35.7696 39.9178 35.231L39.9355 27.0897C39.9355 27.0891 39.9355 27.0887 39.9355 27.0887C39.9355 27.0876 39.9355 27.087 39.9355 27.087L39.9355 13.4744C39.9355 12.6603 39.2754 12.0002 38.4614 12.0002L24.6325 12.0002C24.1632 12.0002 23.7221 12.2237 23.4442 12.6018L19.4633 18.0228C19.4578 18.0304 19.4535 18.0381 19.4481 18.0458C19.4321 18.0682 19.4174 18.0912 19.4026 18.1145C19.3911 18.133 19.3796 18.1513 19.369 18.1698C19.3561 18.1927 19.3442 18.216 19.3325 18.2396C19.3224 18.26 19.3121 18.2802 19.303 18.3009C19.2932 18.3231 19.2845 18.3461 19.2756 18.3691C19.2669 18.3916 19.2582 18.4142 19.2509 18.4369C19.2438 18.4585 19.2377 18.4808 19.2317 18.5029C19.2248 18.5277 19.218 18.5526 19.2126 18.5777C19.208 18.5986 19.2045 18.6197 19.2008 18.6409C19.196 18.668 19.1914 18.695 19.1883 18.7222C19.186 18.7426 19.1845 18.7628 19.1831 18.7834C19.181 18.8119 19.1792 18.8405 19.1788 18.8691C19.1787 18.8779 19.1775 18.8864 19.1775 18.8953L19.1775 22.1876C19.1775 23.0017 19.8376 23.6618 20.6516 23.6618C21.4657 23.6618 22.1258 23.0017 22.1258 22.1876L22.1258 19.3787L25.3788 14.9486L36.987 14.9486L36.987 25.6122L13.161 25.6122L13.161 14.9484L16.6706 14.9484C17.4847 14.9484 18.1448 14.2883 18.1448 13.4743C18.1448 12.6602 17.4847 12.0001 16.6706 12.0001L11.6868 12.0001C10.8728 12.0001 10.2127 12.6602 10.2127 13.4743L10.2127 27.0864C10.2127 27.0864 10.2127 27.0874 10.2127 27.0878C10.2131 27.0881 10.2129 27.0892 10.2129 27.0897ZM36.9842 28.5606L36.9706 34.8391C30.6583 35.1014 26.451 40.229 26.4471 45.0084C26.4314 46.7215 27.0944 50.5538 27.8969 55.0145C28.1704 56.5363 28.4805 58.2597 28.5029 58.6152C28.505 59.53 28.1511 60.3906 27.5058 61.0397C26.8575 61.6922 25.994 62.0516 25.0746 62.0516C24.155 62.0516 23.2915 61.6922 22.6432 61.0398C21.9979 60.3906 21.6442 59.53 21.6462 58.6153C21.6685 58.26 21.9786 56.5357 22.2525 55.013C23.0547 50.5521 23.7176 46.7199 23.7017 45.0073C23.6976 40.2297 19.4924 35.1044 13.1784 34.8392L13.1645 28.5604L36.9842 28.5606Z" fill="#24585B"/>
<path d="M64.552 11.362C66.072 11.362 67.4147 11.704 68.58 12.388C69.7707 13.072 70.6827 14.0347 71.316 15.276C71.9747 16.5173 72.304 17.936 72.304 19.532C72.304 21.1027 71.9747 22.496 71.316 23.712C70.6827 24.9027 69.7707 25.8273 68.58 26.486C67.4147 27.1447 66.072 27.474 64.552 27.474H60.448C60.3213 27.474 60.258 27.5373 60.258 27.664V37.544C60.258 37.6707 60.2073 37.7847 60.106 37.886C60.03 37.962 59.9287 38 59.802 38H55.356C55.2293 38 55.1153 37.962 55.014 37.886C54.938 37.7847 54.9 37.6707 54.9 37.544V11.818C54.9 11.6913 54.938 11.59 55.014 11.514C55.1153 11.4127 55.2293 11.362 55.356 11.362H64.552ZM63.678 23.218C64.666 23.218 65.4513 22.9013 66.034 22.268C66.642 21.6093 66.946 20.7353 66.946 19.646C66.946 18.5313 66.642 17.6447 66.034 16.986C65.4513 16.3273 64.666 15.998 63.678 15.998H60.448C60.3213 15.998 60.258 16.0613 60.258 16.188V23.028C60.258 23.1547 60.3213 23.218 60.448 23.218H63.678ZM83.3335 38.304C81.6108 38.304 80.0908 37.9493 78.7735 37.24C77.4562 36.5307 76.4302 35.5427 75.6955 34.276C74.9862 32.984 74.6315 31.502 74.6315 29.83V11.856C74.6315 11.7293 74.6695 11.628 74.7455 11.552C74.8468 11.4507 74.9608 11.4 75.0875 11.4H79.5335C79.6602 11.4 79.7615 11.4507 79.8375 11.552C79.9388 11.628 79.9895 11.7293 79.9895 11.856V30.096C79.9895 31.1853 80.2935 32.0593 80.9015 32.718C81.5095 33.3767 82.3202 33.706 83.3335 33.706C84.3468 33.706 85.1575 33.3767 85.7655 32.718C86.3735 32.0593 86.6775 31.1853 86.6775 30.096V11.856C86.6775 11.7293 86.7155 11.628 86.7915 11.552C86.8928 11.4507 87.0068 11.4 87.1335 11.4H91.5795C91.7062 11.4 91.8075 11.4507 91.8835 11.552C91.9848 11.628 92.0355 11.7293 92.0355 11.856V29.83C92.0355 31.502 91.6682 32.984 90.9335 34.276C90.2242 35.5427 89.2108 36.5307 87.8935 37.24C86.5762 37.9493 85.0562 38.304 83.3335 38.304ZM95.8272 38C95.7005 38 95.5865 37.962 95.4852 37.886C95.4092 37.7847 95.3712 37.6707 95.3712 37.544V11.856C95.3712 11.7293 95.4092 11.628 95.4852 11.552C95.5865 11.4507 95.7005 11.4 95.8272 11.4H103.997C105.695 11.4 107.189 11.7167 108.481 12.35C109.799 12.9833 110.812 13.8827 111.521 15.048C112.231 16.2133 112.585 17.5687 112.585 19.114V30.286C112.585 31.8313 112.231 33.1867 111.521 34.352C110.812 35.5173 109.799 36.4167 108.481 37.05C107.189 37.6833 105.695 38 103.997 38H95.8272ZM100.729 33.212C100.729 33.3387 100.793 33.402 100.919 33.402L104.035 33.364C104.973 33.364 105.733 33.0347 106.315 32.376C106.898 31.692 107.202 30.7927 107.227 29.678V19.722C107.227 18.582 106.936 17.6827 106.353 17.024C105.771 16.34 104.998 15.998 104.035 15.998H100.919C100.793 15.998 100.729 16.0613 100.729 16.188V33.212ZM116.191 38C116.065 38 115.951 37.962 115.849 37.886C115.773 37.7847 115.735 37.6707 115.735 37.544V11.856C115.735 11.7293 115.773 11.628 115.849 11.552C115.951 11.4507 116.065 11.4 116.191 11.4H124.361C126.059 11.4 127.553 11.7167 128.845 12.35C130.163 12.9833 131.176 13.8827 131.885 15.048C132.595 16.2133 132.949 17.5687 132.949 19.114V30.286C132.949 31.8313 132.595 33.1867 131.885 34.352C131.176 35.5173 130.163 36.4167 128.845 37.05C127.553 37.6833 126.059 38 124.361 38H116.191ZM121.093 33.212C121.093 33.3387 121.157 33.402 121.283 33.402L124.399 33.364C125.337 33.364 126.097 33.0347 126.679 32.376C127.262 31.692 127.566 30.7927 127.591 29.678V19.722C127.591 18.582 127.3 17.6827 126.717 17.024C126.135 16.34 125.362 15.998 124.399 15.998H121.283C121.157 15.998 121.093 16.0613 121.093 16.188V33.212ZM136.593 38C136.466 38 136.352 37.962 136.251 37.886C136.175 37.7847 136.137 37.6707 136.137 37.544V11.856C136.137 11.7293 136.175 11.628 136.251 11.552C136.352 11.4507 136.466 11.4 136.593 11.4H141.039C141.165 11.4 141.267 11.4507 141.343 11.552C141.444 11.628 141.495 11.7293 141.495 11.856V33.212C141.495 33.3387 141.558 33.402 141.685 33.402H151.869C151.995 33.402 152.097 33.4527 152.173 33.554C152.274 33.63 152.325 33.7313 152.325 33.858V37.544C152.325 37.6707 152.274 37.7847 152.173 37.886C152.097 37.962 151.995 38 151.869 38H136.593ZM170.907 15.542C170.907 15.6687 170.857 15.7827 170.755 15.884C170.679 15.96 170.578 15.998 170.451 15.998H160.267C160.141 15.998 160.077 16.0613 160.077 16.188V22.116C160.077 22.2427 160.141 22.306 160.267 22.306H166.613C166.74 22.306 166.841 22.3567 166.917 22.458C167.019 22.534 167.069 22.6353 167.069 22.762V26.448C167.069 26.5747 167.019 26.6887 166.917 26.79C166.841 26.866 166.74 26.904 166.613 26.904H160.267C160.141 26.904 160.077 26.9673 160.077 27.094V33.212C160.077 33.3387 160.141 33.402 160.267 33.402H170.451C170.578 33.402 170.679 33.4527 170.755 33.554C170.857 33.63 170.907 33.7313 170.907 33.858V37.544C170.907 37.6707 170.857 37.7847 170.755 37.886C170.679 37.962 170.578 38 170.451 38H155.175C155.049 38 154.935 37.962 154.833 37.886C154.757 37.7847 154.719 37.6707 154.719 37.544V11.856C154.719 11.7293 154.757 11.628 154.833 11.552C154.935 11.4507 155.049 11.4 155.175 11.4H170.451C170.578 11.4 170.679 11.4507 170.755 11.552C170.857 11.628 170.907 11.7293 170.907 11.856V15.542ZM190.278 11.4C190.404 11.4 190.506 11.4507 190.582 11.552C190.683 11.628 190.734 11.7293 190.734 11.856V15.58C190.734 15.7067 190.683 15.8207 190.582 15.922C190.506 15.998 190.404 16.036 190.278 16.036H184.502C184.375 16.036 184.312 16.0993 184.312 16.226V37.544C184.312 37.6707 184.261 37.7847 184.16 37.886C184.084 37.962 183.982 38 183.856 38H179.41C179.283 38 179.169 37.962 179.068 37.886C178.992 37.7847 178.954 37.6707 178.954 37.544V16.226C178.954 16.0993 178.89 16.036 178.764 16.036H173.178C173.051 16.036 172.937 15.998 172.836 15.922C172.76 15.8207 172.722 15.7067 172.722 15.58V11.856C172.722 11.7293 172.76 11.628 172.836 11.552C172.937 11.4507 173.051 11.4 173.178 11.4H190.278ZM200.839 38.342C199.091 38.342 197.546 37.9873 196.203 37.278C194.886 36.5687 193.86 35.568 193.125 34.276C192.39 32.984 192.023 31.4767 192.023 29.754V19.646C192.023 17.9487 192.39 16.454 193.125 15.162C193.86 13.87 194.886 12.8693 196.203 12.16C197.546 11.4507 199.091 11.096 200.839 11.096C202.587 11.096 204.132 11.4507 205.475 12.16C206.818 12.8693 207.856 13.87 208.591 15.162C209.326 16.454 209.693 17.9487 209.693 19.646V29.754C209.693 31.4767 209.326 32.984 208.591 34.276C207.856 35.568 206.818 36.5687 205.475 37.278C204.132 37.9873 202.587 38.342 200.839 38.342ZM200.839 33.744C201.903 33.744 202.752 33.402 203.385 32.718C204.018 32.0087 204.335 31.0967 204.335 29.982V19.494C204.335 18.354 204.018 17.442 203.385 16.758C202.752 16.0487 201.903 15.694 200.839 15.694C199.8 15.694 198.964 16.0487 198.331 16.758C197.698 17.442 197.381 18.354 197.381 19.494V29.982C197.381 31.0967 197.698 32.0087 198.331 32.718C198.964 33.402 199.8 33.744 200.839 33.744ZM217.865 38C217.612 38 217.447 37.8733 217.371 37.62L211.405 11.894V11.742C211.405 11.514 211.545 11.4 211.823 11.4H216.497C216.801 11.4 216.966 11.5393 216.991 11.818L219.879 26.41C219.905 26.486 219.943 26.524 219.993 26.524C220.044 26.524 220.082 26.486 220.107 26.41L222.881 11.818C222.907 11.5393 223.071 11.4 223.375 11.4H227.593C227.872 11.4 228.037 11.5393 228.087 11.818L231.127 26.41C231.153 26.486 231.191 26.524 231.241 26.524C231.292 26.524 231.33 26.486 231.355 26.41L234.091 11.818C234.117 11.5393 234.281 11.4 234.585 11.4H239.069C239.399 11.4 239.525 11.5647 239.449 11.894L233.901 37.582C233.851 37.8607 233.686 38 233.407 38H229.113C228.835 38 228.67 37.8607 228.619 37.582L225.541 22.306C225.516 22.23 225.478 22.192 225.427 22.192C225.377 22.192 225.339 22.23 225.313 22.306L222.539 37.582C222.514 37.8607 222.349 38 222.045 38H217.865ZM254.926 11.856C254.926 11.7293 254.964 11.628 255.04 11.552C255.141 11.4507 255.255 11.4 255.382 11.4H259.79C259.916 11.4 260.018 11.4507 260.094 11.552C260.195 11.628 260.246 11.7293 260.246 11.856V37.544C260.246 37.6707 260.195 37.7847 260.094 37.886C260.018 37.962 259.916 38 259.79 38H255.154C254.9 38 254.723 37.886 254.622 37.658L247.364 22.192C247.313 22.116 247.262 22.078 247.212 22.078C247.161 22.078 247.136 22.1287 247.136 22.23L247.174 37.544C247.174 37.6707 247.123 37.7847 247.022 37.886C246.946 37.962 246.844 38 246.718 38H242.31C242.183 38 242.069 37.962 241.968 37.886C241.892 37.7847 241.854 37.6707 241.854 37.544V11.856C241.854 11.7293 241.892 11.628 241.968 11.552C242.069 11.4507 242.183 11.4 242.31 11.4H246.908C247.161 11.4 247.338 11.514 247.44 11.742L254.698 27.208C254.748 27.284 254.799 27.322 254.85 27.322C254.9 27.322 254.926 27.2713 254.926 27.17V11.856Z" fill="#08343E"/>
</svg>
