<svg width="517" height="729" viewBox="0 0 517 729" fill="none" xmlns="http://www.w3.org/2000/svg">
<path d="M13.5674 88.7751H104.049" stroke="#EBEBEB" stroke-miterlimit="10"/>
<path d="M221.662 429.806L223.027 644.655" stroke="#002346" stroke-miterlimit="10"/>
<path d="M461.325 430.83L462.69 563.107" stroke="#002346" stroke-miterlimit="10"/>
<path d="M89.8054 385.557C94.3044 407.174 86.3192 407.623 86.3192 407.623C80.5302 408.69 83.2488 399.424 83.2488 399.424C83.9311 389.87 81.8841 390.884 81.8841 390.884C67.225 383.411 72.3424 450.281 72.3424 450.281C73.707 479.296 69.272 477.246 69.272 477.246C59.677 477.588 60.7431 420.582 60.7431 420.582C61.0842 382.002 44.3782 366.64 44.3782 366.64C29.0368 348.215 32.7895 320.566 32.7895 320.566L32.1179 224.799L31.0518 75.1215L74.3893 38.9539C86.3085 30.2963 101.639 27.8837 115.637 32.4634L163.708 50.6112L163.911 241.431L164.028 346.987L89.8054 385.557Z" fill="#82D8DD" stroke="#002346" stroke-miterlimit="10"/>
<path opacity="0.2" d="M189.178 684.527C186.427 693.046 178.506 698.821 169.561 698.821H115.872C106.501 698.821 98.3022 692.491 95.9355 683.406L85.4556 643.214C90.0825 652.331 99.411 665.151 117.62 674.663C130.67 681.431 145.169 684.89 159.86 684.74L189.178 684.527Z" fill="black"/>
<path d="M482.445 171.188V275.858H340.3V131.455H377.411L355.737 123.267H202.43C189.7 123.267 179.38 133.59 179.37 146.336V411.498C179.37 424.244 189.679 434.577 202.408 434.588H467.583C480.323 434.588 490.643 424.254 490.643 411.498V174.252L482.445 171.188ZM331.43 426.39H210.639C197.909 426.39 187.589 416.067 187.579 403.32V284.729H331.43V426.39ZM331.43 275.869H187.579V154.545C187.579 141.788 197.899 131.455 210.639 131.455H331.43V275.869ZM482.445 403.31C482.445 416.056 472.125 426.39 459.395 426.39H340.3V284.729H482.445V403.31Z" fill="#E6E7E8" stroke="#002346" stroke-miterlimit="10"/>
<path d="M166.672 358.933C166.619 361.047 165.222 362.883 163.207 363.491L75.7859 389.816L72.7262 378.778L69.0801 365.648L156.981 341.03C157.909 340.774 158.911 340.956 159.689 341.522C162.45 343.625 164.476 346.56 165.478 349.891C166.384 352.816 166.779 355.869 166.672 358.933Z" fill="#82D8DD" stroke="#002346" stroke-miterlimit="10"/>
<path d="M132.343 362.221L471.261 400.342C473.34 400.577 474.843 402.456 474.609 404.537C474.609 404.623 474.588 404.708 474.577 404.794C474.215 406.769 472.391 408.124 470.398 407.889L114.315 366.32L78.5258 377.924L77.1611 373.142L164.732 348.258C164.988 348.813 165.212 349.389 165.414 349.966C165.713 350.852 165.937 351.77 166.096 352.688L132.343 362.221Z" fill="#002346" stroke="#0D2445" stroke-miterlimit="10"/>
<path d="M75.7402 389.879C79.7513 388.764 81.5022 382.449 79.651 375.774C77.7998 369.099 73.0475 364.592 69.0365 365.707C65.0255 366.823 63.2746 373.138 65.1258 379.813C66.977 386.488 71.7292 390.995 75.7402 389.879Z" fill="#002346" stroke="#0D2445" stroke-miterlimit="10"/>
<path d="M280.64 435.079L282.004 645.659" stroke="#002346" stroke-miterlimit="10"/>
<path d="M343.711 434.802L345.076 646.449" stroke="#002346" stroke-miterlimit="10"/>
<path d="M400.301 429.806L401.665 644.655" stroke="#002346" stroke-miterlimit="10"/>
<path d="M330.076 631.215L327.688 657.156C324.265 657.273 320.896 658.084 317.794 659.547C303.476 663.977 300.075 655.448 300.075 655.448L303.135 632.218L330.076 631.215Z" fill="#F2B3C1" stroke="#002346" stroke-miterlimit="10"/>
<path d="M329.735 665.685C330.022 672.09 329.873 678.517 329.298 684.901C328.669 690.676 327.688 691.658 327.688 691.658C316.44 694.722 304.159 685.851 304.159 685.851C300.459 684.442 288.764 684.399 278.305 684.687C268.529 684.954 259.84 685.509 259.84 685.509C245.373 686.459 241.215 677.407 240.373 669.229C240.064 665.92 240.16 662.589 240.65 659.301C240.863 657.882 242.068 656.814 243.507 656.782L253.635 656.547L300.075 655.48C300.075 655.48 303.476 664.02 317.794 659.579C320.897 658.116 324.265 657.305 327.688 657.188C331.771 657.497 329.735 665.685 329.735 665.685Z" fill="#82D8DD" stroke="#002346" stroke-miterlimit="10"/>
<path d="M399.277 595.368L413.254 621.308L432.007 601.517L424.16 582.397L399.277 595.368Z" fill="#F2B3C1" stroke="#002346" stroke-miterlimit="10"/>
<path d="M329.297 684.879C328.668 690.655 327.687 691.637 327.687 691.637C316.44 694.7 304.158 685.829 304.158 685.829C297.005 683.097 259.84 685.488 259.84 685.488C245.373 686.438 241.215 677.385 240.373 669.208C244.85 674.375 254.285 681.719 271.439 681.047L298.38 680.364C303.444 680.524 308.423 681.677 313.039 683.78C313.039 683.78 316.024 685.691 329.297 684.879Z" fill="white" stroke="#002346" stroke-miterlimit="10"/>
<path d="M453.67 619.301C453.063 621.436 452.252 623.497 451.25 625.472C450.291 627.404 449.118 629.219 447.753 630.895C444.64 634.973 443.276 640.118 443.937 645.21C443.937 645.21 444.278 665.685 429.619 665.002L414.054 665.803L403.03 666.368C403.03 666.368 386.324 662.269 393.136 652.373C393.136 652.373 400.098 645.413 406.505 649.79L406.772 649.982C406.772 649.982 410.557 654.316 412.103 647.548C412.454 646.022 412.572 644.452 412.454 642.894C411.932 636.606 410.717 613.654 420.109 606.598C420.109 606.598 427.081 597.94 438.233 604.377C439.523 605.135 440.749 605.989 441.9 606.94L452.252 614.999C453.553 616.013 454.118 617.711 453.67 619.301Z" fill="#82D8DD" stroke="#002346" stroke-miterlimit="10"/>
<path d="M453.671 619.302C453.063 621.437 452.253 623.497 451.25 625.472C450.291 627.404 449.118 629.219 447.754 630.895C444.641 634.973 443.276 640.118 443.937 645.21C443.937 645.21 444.278 665.685 429.619 665.002L414.054 665.803C419.736 664.223 429.918 660.401 431.975 652.832C432.263 651.701 432.37 650.537 432.263 649.374C431.805 643.481 430.408 612.128 452.242 615.031C453.532 616.035 454.097 617.722 453.671 619.302Z" fill="white" stroke="#002346" stroke-miterlimit="10"/>
<path d="M425.099 586.913L421.666 587.169C418.606 587.393 415.663 588.429 413.137 590.158L410.45 591.994L400.727 598.645C398.616 600.086 395.738 599.542 394.298 597.439C394.224 597.321 394.149 597.204 394.075 597.076L361.153 537.924C359.33 534.615 358.274 530.932 358.083 527.153L355.332 476.915C355.193 475.122 354.948 473.339 354.596 471.578C353.658 467.233 352.603 469.752 352.603 469.752L339.074 597.567L335.524 631.215C331.909 638.688 312.602 636.798 303.487 635.485C300.736 635.079 298.7 632.72 298.679 629.945L297.996 505.461L297.314 388.503L405.375 396.691L404.309 445.904L402.859 510.382C402.763 514.876 403.584 519.339 405.258 523.513L428.574 581.33C429.416 583.411 428.414 585.781 426.335 586.625C425.941 586.785 425.525 586.881 425.099 586.913Z" fill="white" stroke="#002346" stroke-miterlimit="10"/>
<path d="M211.097 354.663C228.592 345.898 244.861 334.892 259.499 321.901L283.028 343.742L225.458 369.683C225.458 369.683 200.937 377.881 208.101 384.254C209.37 385.354 209.658 387.211 208.794 388.653C207.334 390.991 203.72 393.467 194.775 391.855C194.775 391.855 166.48 390.147 179.433 362.84C179.433 362.84 166.406 364.591 161.395 360.577C160.702 359.99 160.617 358.954 161.203 358.26C161.469 357.951 161.832 357.748 162.237 357.695L178.101 355.421C180.126 355.132 182.163 354.972 184.199 354.951L211.097 354.663Z" fill="#F2B3C1" stroke="#002346" stroke-miterlimit="10"/>
<path d="M421.687 367.676C425.525 377.22 428.595 384.062 428.595 384.062C414.437 398.485 381.601 406.598 364.074 410.056C357.112 411.423 352.571 412.053 352.571 412.053C305.523 415.511 297.314 388.503 297.314 388.503V363.203C298.38 334.188 295.949 334.529 295.949 334.529C291.514 341.692 282.996 343.742 282.996 343.742C277.985 345.461 272.793 342.301 268.209 337.54C262.463 331.604 257.665 323.171 255.277 318.623C254.371 316.894 254.947 314.759 256.599 313.713C273.593 303.016 302.112 271.396 302.112 271.396C311.707 258.767 322.57 258.426 322.57 258.426L356.153 251.167C379.575 250.227 401.932 261.041 415.77 279.99C421.879 288.274 425.866 292.053 428.02 293.729C428.947 294.455 429.107 295.8 428.382 296.728C428.329 296.803 428.265 296.867 428.201 296.931C426.847 298.298 425.354 299.525 423.755 300.593C417.646 304.628 410.28 306.283 403.03 305.258C405.407 312.731 407.796 325.05 407.796 325.05C410.13 337.486 416.591 354.972 421.687 367.676Z" fill="#82D8DD" stroke="#002346" stroke-miterlimit="10"/>
<path d="M403.03 305.215C402.731 304.148 413.158 306.475 420.877 302.258L427.433 318.581C429.683 324.164 429.309 330.462 426.42 335.746L416.591 353.755C412.849 344.436 409.906 334.818 407.795 325.007C407.795 325.007 405.407 313.745 403.03 305.215Z" fill="#F2B3C1" stroke="#002346" stroke-miterlimit="10"/>
<path d="M220.639 572.16L189.402 683.737L189.178 684.506C186.427 693.025 178.506 698.8 169.561 698.8H115.872C106.5 698.8 98.302 692.469 95.9352 683.385L85.4553 643.193L72.001 591.653C72.001 591.653 155.691 617.049 220.639 572.16Z" fill="white" stroke="#002346" stroke-miterlimit="10"/>
<path d="M72.001 591.653C72.001 591.653 172.578 576.931 220.639 572.16C220.639 572.16 164.391 617.273 72.001 591.653Z" fill="white" stroke="#002346" stroke-miterlimit="10"/>
<path d="M204.274 595.368C204.274 595.368 198.485 598.101 201.886 606.288C202.152 606.694 202.376 607.11 202.557 607.559C203.624 610.003 205.233 615.853 201.278 624.095C200.297 626.176 199.636 628.386 199.306 630.66C198.133 638.464 195.116 655.747 190.574 661.116C190.159 661.607 189.423 661.661 188.933 661.244C188.677 661.031 188.527 660.721 188.527 660.39L187.664 629.123C187.611 627.158 186.896 625.28 185.628 623.785C181.811 619.045 179.721 613.131 179.732 607.036C179.711 606.011 179.561 604.997 179.263 604.015C177.93 599.339 174.124 595.784 169.38 594.759C169.38 594.759 140.499 602.851 98.9204 597.086C98.9204 597.086 112.183 593.008 141.096 594.823C142.919 594.941 144.753 594.78 146.522 594.321C148.889 593.713 154.039 592.966 164.998 592.987C167.301 592.987 169.583 592.549 171.715 591.685C180.937 587.927 207.024 577.807 211.779 581.757C211.779 581.714 215.223 588.205 204.274 595.368Z" fill="white" stroke="#002346" stroke-miterlimit="10"/>
<path d="M201.278 624.095C200.297 626.176 199.636 628.386 199.306 630.66C198.133 638.463 195.116 655.747 190.574 661.116C190.159 661.607 189.423 661.661 188.933 661.244C188.677 661.031 188.527 660.721 188.527 660.39L187.664 629.123C187.611 627.158 186.896 625.28 185.628 623.785C181.811 619.045 179.721 613.131 179.732 607.036C187.003 610.057 195.148 610.249 202.558 607.569C203.624 610.003 205.233 615.853 201.278 624.095Z" fill="#82D8DD" stroke="#002346" stroke-miterlimit="10"/>
<path d="M99.5494 597.257C99.5494 597.257 78.8241 610.729 94.8479 631.898C94.8479 631.898 123.484 669.101 151.778 635.987C161.352 624.329 169.199 611.359 175.084 597.46" stroke="#002346" stroke-width="3" stroke-miterlimit="10"/>
<path d="M309.158 275.869C309.158 275.869 321.643 312.944 301.61 332.554" stroke="#002346" stroke-linecap="round" stroke-linejoin="round"/>
<path d="M400.983 302.258L389.554 275.816" stroke="#002346" stroke-linecap="round" stroke-linejoin="round"/>
<path d="M352.603 469.752L355.833 426.39" stroke="#002346" stroke-linecap="round" stroke-linejoin="round"/>
<path d="M359.614 226.503C365.712 213.27 361.121 198.137 349.359 192.702C337.598 187.268 323.119 193.59 317.021 206.824C310.923 220.057 315.514 235.19 327.276 240.625C339.037 246.059 353.516 239.737 359.614 226.503Z" fill="#002346" stroke="#0D2445" stroke-width="1.28" stroke-miterlimit="10"/>
<path d="M322.57 248.882V260.155C322.57 260.155 349.159 265.952 355.982 252.298L353.338 210.441L339.479 216.846L322.57 248.882Z" fill="#F2B3C1" stroke="#002346" stroke-miterlimit="10"/>
<path d="M322.41 181.617C335.95 181.617 346.931 192.613 346.931 206.17V226.453C346.931 240.011 335.95 251.006 322.41 251.006C308.871 251.006 297.89 240.011 297.89 226.453V206.17C297.89 192.613 308.871 181.617 322.41 181.617Z" fill="#F2B3C1" stroke="#002346" stroke-width="1.06" stroke-miterlimit="10"/>
<path d="M372.315 211.209C372.145 212.821 370.695 213.985 369.085 213.814C368.786 213.782 368.499 213.707 368.232 213.59L365.727 212.522L334.809 198.954C331.44 197.47 327.826 196.606 324.148 196.424L290.032 194.748C289.627 194.727 289.318 194.374 289.339 193.969C289.35 193.755 289.457 193.563 289.617 193.435L292.378 191.225C295.704 188.588 298.753 185.621 301.504 182.386C318.157 162.626 336.856 163.833 345.812 165.957C349.095 166.758 352.166 168.274 354.788 170.409C372.88 185.044 373.189 203.352 372.315 211.209Z" fill="#82D8DD" stroke="#002346" stroke-miterlimit="10"/>
<path d="M345.865 165.914C345.865 165.914 316.099 174.743 306.418 195.431L324.191 196.381C325.726 196.445 327.261 196.627 328.775 196.926C328.775 196.926 339.511 171.593 352.539 168.594C350.524 167.249 348.253 166.341 345.865 165.914Z" fill="white" stroke="#002346" stroke-miterlimit="10"/>
<path d="M354.329 209.945C355.095 206.19 353.377 202.668 350.493 202.079C347.608 201.489 344.649 204.055 343.883 207.81C343.118 211.564 344.835 215.086 347.72 215.676C350.604 216.266 353.563 213.7 354.329 209.945Z" fill="#F2B3C1" stroke="#002346" stroke-width="1.06" stroke-miterlimit="10"/>
</svg>
